<?xml version="1.0" encoding="UTF-8" standalone="no"?>
<svg
   xmlns:dc="http://purl.org/dc/elements/1.1/"
   xmlns:cc="http://creativecommons.org/ns#"
   xmlns:rdf="http://www.w3.org/1999/02/22-rdf-syntax-ns#"
   xmlns:svg="http://www.w3.org/2000/svg"
   xmlns="http://www.w3.org/2000/svg"
   xmlns:sodipodi="http://sodipodi.sourceforge.net/DTD/sodipodi-0.dtd"
   xmlns:inkscape="http://www.inkscape.org/namespaces/inkscape"
   width="265mm"
   height="63mm"
   viewBox="0 0 265 63"
   version="1.1"
   preserveAspectRatio="xMidYMid meet"
   id="svg1063"
   sodipodi:docname="cara.svg"
   inkscape:version="1.0.2 (394de47547, 2021-03-26)">
  <metadata
     id="metadata1069">
    <rdf:RDF>
      <cc:Work
         rdf:about="">
        <dc:format>image/svg+xml</dc:format>
        <dc:type
           rdf:resource="http://purl.org/dc/dcmitype/StillImage" />
        <dc:title></dc:title>
      </cc:Work>
    </rdf:RDF>
  </metadata>
  <defs
     id="defs1067" />
  <sodipodi:namedview
     pagecolor="#ffffff"
     bordercolor="#666666"
     borderopacity="1"
     objecttolerance="10"
     gridtolerance="10"
     guidetolerance="10"
     inkscape:pageopacity="0"
     inkscape:pageshadow="2"
     inkscape:window-width="1920"
     inkscape:window-height="960"
     id="namedview1065"
     showgrid="false"
     inkscape:zoom="1.4616981"
     inkscape:cx="485.06061"
     inkscape:cy="157.26554"
     inkscape:window-x="0"
     inkscape:window-y="27"
     inkscape:window-maximized="1"
     inkscape:current-layer="svg1063" />
  <path
     id="path1088"
     style="font-size:12px;fill:none;fill-rule:evenodd;stroke:#ff0000;stroke-width:0.377953;stroke-linecap:round"
     d="M 315.3418 13.095703 L 315.3418 23.832031 L 315.3418 23.865234 L 315.3418 46.382812 L 326.67969 46.382812 L 326.67969 80.398438 L 315.3418 80.398438 L 315.3418 114.03711 L 315.3418 114.41406 L 326.67969 114.41406 L 326.67969 148.42969 L 315.3418 148.42969 L 315.3418 182.44531 L 326.67969 182.44531 L 326.67969 216.46094 L 326.67969 218.35156 L 366.36523 218.35156 L 366.36523 229.68945 L 400.38086 229.68945 L 400.38086 218.35156 L 434.39648 218.35156 L 434.39648 229.68945 L 468.41211 229.68945 L 468.41211 218.35156 L 502.42773 218.35156 L 502.42773 229.68945 L 536.44336 229.68945 L 536.44336 218.35156 L 570.45898 218.35156 L 570.45898 229.68945 L 604.47461 229.68945 L 604.47461 218.35156 L 638.49023 218.35156 L 638.49023 229.68945 L 672.50586 229.68945 L 672.50586 218.35156 L 706.52148 218.35156 L 706.52148 229.68945 L 740.53711 229.68945 L 740.53711 218.35156 L 774.55469 218.35156 L 780.22266 218.35156 L 780.22266 182.44531 L 791.5625 182.44531 L 791.5625 148.42969 L 780.22266 148.42969 L 780.22266 114.41406 L 791.5625 114.41406 L 791.5625 80.398438 L 780.22266 80.398438 L 780.22266 46.382812 L 791.5625 46.382812 L 791.5625 23.832031 L 791.61328 23.832031 L 791.61328 13.128906 L 418.95898 13.128906 L 418.95898 23.832031 L 419.0332 23.832031 L 419.0332 114.03711 L 434.20703 114.03711 L 434.20703 207.47852 L 348.2168 207.47852 L 348.2168 114.03711 L 361.09375 114.03711 L 361.09375 23.865234 L 361.22266 23.865234 L 361.22266 13.095703 L 315.3418 13.095703 z M 453.16602 61.158203 L 764.63086 61.158203 L 764.63086 207.47852 L 453.16602 207.47852 L 453.16602 61.158203 z "
     transform="scale(0.26458333)" />
</svg>
