<?xml version="1.0" encoding="UTF-8" standalone="no"?>
<svg
   xmlns:dc="http://purl.org/dc/elements/1.1/"
   xmlns:cc="http://creativecommons.org/ns#"
   xmlns:rdf="http://www.w3.org/1999/02/22-rdf-syntax-ns#"
   xmlns:svg="http://www.w3.org/2000/svg"
   xmlns="http://www.w3.org/2000/svg"
   xmlns:sodipodi="http://sodipodi.sourceforge.net/DTD/sodipodi-0.dtd"
   xmlns:inkscape="http://www.inkscape.org/namespaces/inkscape"
   width="210mm"
   height="297mm"
   viewBox="0 0 210 297"
   version="1.1"
   id="svg130"
   inkscape:version="1.0.2 (394de47547, 2021-03-26)"
   sodipodi:docname="prueba de impresion 02.svg">
  <defs
     id="defs124" />
  <sodipodi:namedview
     id="base"
     pagecolor="#ffffff"
     bordercolor="#666666"
     borderopacity="1.0"
     inkscape:pageopacity="0.0"
     inkscape:pageshadow="2"
     inkscape:zoom="0.70710678"
     inkscape:cx="143.96241"
     inkscape:cy="634.72147"
     inkscape:document-units="mm"
     inkscape:current-layer="layer1"
     inkscape:document-rotation="0"
     showgrid="false"
     inkscape:window-width="1920"
     inkscape:window-height="960"
     inkscape:window-x="0"
     inkscape:window-y="27"
     inkscape:window-maximized="1" />
  <metadata
     id="metadata127">
    <rdf:RDF>
      <cc:Work
         rdf:about="">
        <dc:format>image/svg+xml</dc:format>
        <dc:type
           rdf:resource="http://purl.org/dc/dcmitype/StillImage" />
        <dc:title></dc:title>
      </cc:Work>
    </rdf:RDF>
  </metadata>
  <g
     inkscape:label="Capa 1"
     inkscape:groupmode="layer"
     id="layer1">
    <path
       id="rect211"
       style="opacity:0.502211;fill:#00ff00;stroke:#ff1b0c;stroke-width:0.0996701"
       d="m 49.777945,12.601348 v 2.99982 h -9.00048 -1.49966 v 9.50019 h -3.00033 v 8.99995 h 3.00033 v 8.99997 h -3.00033 v 8.99997 h 3.00033 v 8.99997 h -3.00033 v 8.99996 h 3.00033 v 8.99997 h -3.00033 v 3.03289 H 162.27754 v -3.03289 h -2.99983 v -8.99997 h 2.99983 v -8.99996 h -2.99983 v -8.99997 h 2.99983 v -8.99997 h -2.99983 v -8.99997 h 2.99983 v -8.99995 h -2.99983 v -8.99997 -0.50022 h -10.50013 v -2.99982 h -8.99997 v 2.99982 h -8.99997 v -2.99982 h -8.99996 v 2.99982 h -8.99997 v -2.99982 h -8.99996 v 2.99982 h -8.99997 v -2.99982 h -8.999966 v 2.99982 h -8.999969 v -2.99982 h -8.999966 v 2.99982 h -8.99996 v -2.99982 z" />
    <path
       id="path1088"
       style="font-size:12px;fill:none;fill-rule:evenodd;stroke:#ff0000;stroke-width:0.1;stroke-linecap:round"
       d="m 67.72724,82.125254 v 0.0088 H 36.277479 v 5.966563 h 2.999816 v 8.999966 h -2.999816 v 8.900237 0.0997 h 2.999816 v 8.99996 h -2.999816 v 8.99997 h 2.999816 v 8.99997 0.50023 H 49.77743 v 2.99981 h 8.999969 v -2.99981 h 8.999966 v 2.99981 h 8.999966 v -2.99981 H 85.7773 v 2.99981 h 8.999968 v -2.99981 h 8.999962 v 2.99981 h 8.99997 v -2.99981 h 8.99997 v 2.99981 h 8.99997 v -2.99981 h 8.99996 v 2.99981 h 8.99997 v -2.99981 h 9.00048 1.49965 v -9.5002 h 3.00034 v -8.99997 h -3.00034 v -8.99996 h 3.00034 v -8.999977 h -3.00034 v -8.999966 h 3.00034 v -5.966563 h -7.12566 -82.40841 v -0.0088 z m 5.01623,9.884669 h 82.40841 V 130.72384 H 72.74347 Z M 44.975656,106.0008 H 67.72724 v 24.72304 H 44.975656 Z" />
    <path
       id="right_outsideCutPath"
       style="font-size:12px;fill:none;fill-rule:evenodd;stroke:#ff0000;stroke-width:0.1;stroke-linecap:round"
       d="m 159.57371,133.59943 7.30017,-0.0476 0.0196,2.99976 8.99978,-0.0587 -0.0196,-2.99975 8.99977,-0.0587 0.0196,2.99976 8.99978,-0.0587 -0.0196,-2.99975 7.29966,-0.0476 -0.062,-9.49999 -2.99976,0.0196 -0.0587,-8.99977 2.99976,-0.0196 -0.0587,-8.99978 -2.99975,0.0196 -0.0587,-8.999766 2.99976,-0.0196 -0.0587,-8.99977 -2.99975,0.0196 -0.0587,-8.999781 2.99976,-0.01957 -0.0587,-8.999779 -2.99975,0.01957 -0.0587,-8.999778 2.99976,-0.01957 -0.0587,-8.999779 -2.99976,0.01957 -0.0587,-8.999769 2.99975,-0.01957 -0.0587,-8.999768 -2.99976,0.01957 -0.0587,-8.999769 2.99975,-0.01957 -0.0587,-8.999798 -0.003,-0.50021 -7.29965,0.04763 -0.0196,-2.999757 -8.99978,0.05873 0.0196,2.999756 -8.99978,0.05873 -0.0196,-2.999756 -8.99978,0.05873 0.0196,2.999756 -7.30018,0.04764 0.062,9.500007 3.00027,-0.01958 0.0587,8.999768 -3.00027,0.01958 0.0587,8.999768 3.00026,-0.01958 0.0587,8.999768 -3.00027,0.01958 0.0587,8.999778 3.00027,-0.01958 0.0587,8.999779 -3.00027,0.01958 0.0587,8.999779 3.00027,-0.01958 0.0587,8.999778 -3.00027,0.0196 0.0587,8.99977 3.00027,-0.0196 0.0587,8.999783 -3.00026,0.0196 0.0587,8.99977 3.00027,-0.0196 0.0587,8.99976 -3.00027,0.0196 0.0587,9.0003 z m 12.10871,-71.727844 -0.0845,-12.957584 13.42422,-0.0876 0.0846,12.957584 z m 4.01322,-29.550076 -0.0558,-8.554328 8.74036,-0.05703 0.0558,8.554328 z" />
    <path
       d="m 40.2772,133.60065 v 7.3 h -3 v 9 h 3 v 9 h -3 v 9 h 3 v 7.3 h 9.5 v -3 h 9 v 3 h 9 v -3 h 9 v 3 h 9 v -3 h 9 v 3 h 9 v -3 h 9 v 3 h 9 v -3 h 9 v 3 h 9 v -3 h 9 v 3 h 9 0.5 v -7.3 h 3 v -9 h -3 v -9 h 3 v -9 h -3 v -7.3 h -9.5 v 3 h -9 v -3 h -9 v 3 h -9 v -3 h -9 v 3 h -9 v -3 h -9 v 3 h -9 v -3 h -9 v 3 h -9 v -3 h -9 v 3 h -9 v -3 h -9 z"
       id="left_outsideCutPath"
       stroke="#FF0000"
       stroke-width="0.1"
       style="font-size:12px;fill:none;fill-rule:evenodd;stroke:#e31414;stroke-width:1.39999991;stroke-linecap:round;fill-opacity:1;stroke-opacity:0.543019;stroke-miterlimit:4;stroke-dasharray:none"
       vector-effect="non-scaling-stroke" />
    <path
       d="m 39.2772,175.20065 v 9.5 h -3 v 9 h 3 v 9 h -3 v 9 h 3 v 9 h -3 v 9 h 3 v 9.00001 h -3 v 8.99999 h 3 v 9 h -3 v 9 h 3 v 9 h -3 v 9 h 3 v 9 0.5 h 10.5 v 3 h 9 v -3 h 9 v 3 h 9 v -3 h 9 v 3 h 9 v -3 h 9 v 3 h 9 v -3 h 9 v 3 h 9 v -3 h 9 v 3 h 9 v -3 h 9 1.5 v -9.5 h 3 v -9 h -3 v -9 h 3 v -9 h -3 v -9 h 3 v -8.99999 h -3 v -9 h 3 v -9 h -3 v -9 h 3 v -9.00001 h -3 v -9 h 3 v -9 h -3 v -9 -0.5 h -10.5 v -3 h -9 v 3 h -9 v -3 h -9 v 3 h -9 v -3 h -9 v 3 h -9 v -3 h -9 v 3 h -9 v -3 h -9 v 3 h -9 v -3 h -9 v 3 h -9 z"
       id="bottom_outsideCutPath"
       stroke="#FF0000"
       stroke-width="0.1"
       style="font-size:12px;fill:none;fill-rule:evenodd;stroke:#ff0000;stroke-width:1;stroke-linecap:round;stroke-opacity:0.99014235;stroke-miterlimit:4;stroke-dasharray:none"
       vector-effect="non-scaling-stroke" />
    <path
       d="m -2.3568822,293.17761 7.3,0.004 -0.0016,3 8.9999982,0.005 0.0016,-2.99999 8.999998,0.005 -0.0016,3.00001 8.999998,0.005 0.0016,-2.99999 7.299999,0.004 0.0051,-9.5 -3,-0.002 0.0048,-9 3,0.002 0.0048,-9 -2.999999,-0.002 0.0048,-8.99999 2.999999,0.002 0.0048,-9 -3,-0.002 0.0048,-9 2.999998,0.002 0.0048,-9 -2.999998,-0.002 0.0048,-9 2.999998,0.002 0.0048,-8.99999 -2.999998,-0.002 0.0048,-9 2.999998,0.002 0.0048,-9 -2.999998,-0.002 0.0048,-9 2.999998,0.002 0.0048,-8.99999 2.7e-4,-0.50001 -7.299999,-0.004 0.0016,-3 -8.999998,-0.005 -0.0016,2.99999 -8.999998,-0.005 0.0016,-3.00001 -8.9999988,-0.005 -0.0016,2.99999 -7.3,-0.004 -0.0051,9.5 2.999999,0.002 -0.0048,9 -2.999998,-0.002 -0.0048,9 2.999998,0.002 -0.0048,9 -2.999998,-0.002 -0.0048,8.99999 2.999998,0.002 -0.0048,9 -2.999999,-0.002 -0.0048,9 2.999999,0.002 -0.0048,9.00001 -3,-0.002 -0.0048,9 2.999999,0.002 -0.0048,8.99999 -2.999998,-0.002 -0.0048,9 2.999999,0.002 -0.0048,9 -2.999999,-0.002 -0.0048,8.99999 z"
       id="left_outsideCutPath-3"
       stroke="#FF0000"
       stroke-width="0.1"
       style="font-size:12px;fill:none;fill-rule:evenodd;stroke:#ff0000;stroke-width:1;stroke-linecap:round;stroke-miterlimit:4;stroke-dasharray:none"
       vector-effect="non-scaling-stroke" />
    <path
       d="m 158.29781,334.81206 0.005,-7.30002 3.00001,0.002 0.006,-9.00001 -2.99998,-0.002 0.006,-9.00001 3.00002,0.002 0.006,-9.00001 -2.99998,-0.002 0.005,-7.29999 -9.5,-0.006 -0.002,2.99999 -9.00001,-0.006 0.002,-3 -8.99999,-0.006 -0.002,2.99998 -8.99999,-0.006 0.002,-3.00002 -9,-0.006 -0.002,3 -9.00001,-0.006 0.002,-3.00001 -8.999991,-0.006 -0.002,3 -9.000001,-0.006 0.002,-3 -8.999993,-0.006 -0.002,3 -9.000005,-0.006 0.002,-3 -9.000006,-0.006 -0.002,3 -9.000007,-0.006 0.002,-3 -8.999995,-0.006 -0.5,-3.1e-4 -0.0051,7.30001 -2.999992,-0.002 -0.0059,9 2.999983,0.002 -0.0059,9 -3.000012,-0.002 -0.0058,9.00001 2.999993,0.002 -0.0051,7.3 9.500007,0.006 0.002,-2.99999 8.999995,0.006 -0.002,3 9.000007,0.006 0.002,-2.99998 9.000005,0.006 -0.002,3.00001 8.999993,0.006 0.002,-3.00001 8.999999,0.006 -0.002,3.00002 8.999986,0.006 0.002,-3 9.00002,0.006 -0.002,3 9.00001,0.006 0.002,-3 9,0.006 -0.002,3 9.00001,0.006 0.002,-3 9.00002,0.006 -0.002,3.00001 8.99999,0.006 z"
       id="left_outsideCutPath-3-6"
       stroke="#FF0000"
       stroke-width="0.1"
       style="font-size:12px;fill:none;fill-rule:evenodd;stroke:#ff0000;stroke-width:1;stroke-linecap:round;stroke-miterlimit:4;stroke-dasharray:none"
       vector-effect="non-scaling-stroke" />
    <path
       style="fill:#000000;fill-opacity:1;stroke:none;stroke-width:0.10437"
       d="m 98.931405,143.96806 c -0.765412,0.12402 -1.534586,0.12386 -2.296129,0.31601 -2.586574,0.65262 -4.955025,2.35762 -6.325963,4.65314 -3.651865,6.11471 -0.20038,14.2998 6.847811,15.71923 1.167334,0.23514 2.370031,0.28816 3.548566,0.1218 5.29269,-0.74739 9.50537,-5.73647 8.96713,-11.14439 -0.44065,-4.42688 -3.4419,-8.22218 -7.81906,-9.32659 -0.87546,-0.2209 -2.025395,-0.48455 -2.922355,-0.3392 m -0.939323,1.44377 c 1.022403,-0.14436 2.232458,-0.0773 3.235458,0.14787 6.30101,1.41479 9.05803,8.88176 5.42722,14.12759 -0.66577,0.96198 -1.51346,1.77565 -2.50487,2.39759 -1.10027,0.69019 -2.36492,1.15464 -3.65294,1.33655 -7.769589,1.09703 -13.271605,-8.06778 -8.595999,-14.37985 0.675262,-0.9116 1.473408,-1.68801 2.438191,-2.29323 1.100224,-0.6902 2.364903,-1.15464 3.65294,-1.33652 m -2.296134,1.12488 c -0.827965,2.11888 -2.078189,4.25302 -3.157183,6.26218 -0.548599,1.02157 -1.502319,2.28288 -1.643823,3.4442 h 3.235461 l -1.148067,4.17479 1.043697,-1.25243 1.809071,-2.71362 0.800172,-1.46117 -2.817982,-0.41748 1.382898,-2.71361 0.808865,-1.66992 2.281637,2.71361 0.953821,0.97409 0.953835,-0.97409 2.28163,-2.71361 2.08739,4.4879 -2.71361,0.31311 0.76534,1.46117 1.80914,2.71362 1.07846,1.25243 -1.14807,-4.17479 h 3.23546 c -0.12827,-1.05225 -0.965,-2.09365 -1.438,-3.02672 -1.0962,-2.16234 -2.0039,-4.74469 -3.46738,-6.67966 h -0.10437 l -2.42075,3.13109 -0.919075,0.99732 -0.924827,-0.99732 -2.415001,-3.13109 h -0.208739 m 3.235457,8.18144 c -0.546048,0.0885 -1.219358,0.11428 -1.643819,0.52477 -0.640057,0.61891 -0.939546,3.10312 -0.12756,3.6616 0.817715,0.56245 1.323742,-1.18804 2.188859,-1.03785 0.65096,0.11293 1.111225,1.31631 1.774285,1.1393 0.84758,-0.22627 0.67256,-1.60667 0.56245,-2.24103 -0.25811,-1.48654 -1.13544,-2.30907 -2.754215,-2.04679 m -1.353901,1.97718 c 1.000821,-0.36175 1.705841,0.80375 0.414578,1.16842 -0.756774,0.21375 -1.05211,-0.93787 -0.414578,-1.16842 m 2.919446,-0.0116 c 0.81763,-0.12681 1.04411,1.11081 0.31311,1.21476 -0.987015,0.14038 -1.570655,-1.01969 -0.31311,-1.21476 m -2.400499,3.5254 c -0.371128,-0.14612 -0.409369,-0.34431 -0.417478,-0.73059 -1.070938,0.0768 -0.458131,2.09063 0.217433,2.4266 0.255142,0.12691 0.483566,-0.0739 0.721899,-0.13631 0.22836,-0.0597 0.48928,0.0584 0.70449,-0.0289 0.30873,-0.12545 0.4204,-1.02188 0.57111,-1.32205 0.277825,-0.55316 0.783715,-0.95143 0.345045,-1.56554 -1.016765,-1.4234 -2.505048,0.009 -2.142499,1.3568 m 2.817979,-0.65523 c -0.58635,0.27814 -1.238755,1.57452 -1.008935,2.21786 0.148825,0.41654 1.121545,0.85228 1.530785,0.65815 0.59595,-0.28263 1.27028,-1.66 1.00894,-2.31356 -0.14476,-0.36175 -1.18606,-0.72589 -1.53079,-0.56245 m 0.93933,1.17708 c -0.007,0.44034 -0.0499,0.74687 -0.52185,0.83496 l 0.31311,-0.83496 z"
       id="path2713" />
    <path
       style="fill:#000000;fill-opacity:1;stroke:none;stroke-width:0.10437"
       d="m 8.0289924,234.10973 c 0.092855,0.76982 0.06148,1.53835 0.2225664,2.30707 0.5471123,2.61092 2.1545892,5.04662 4.3925822,6.50958 5.96147,3.89701 14.279887,0.78054 15.984183,-6.20424 0.282319,-1.15683 0.384104,-2.35638 0.26571,-3.5407 -0.531983,-5.31866 -5.345991,-9.73034 -10.771299,-9.41201 -4.441116,0.26063 -8.3550878,3.10538 -9.6362251,7.43412 -0.2562463,0.86577 -0.566347,2.00407 -0.4575175,2.90618 m 1.4044598,0.99714 c -0.102749,-1.02742 0.01336,-2.23376 0.279052,-3.22679 1.6693358,-6.2384 9.2420428,-8.69013 14.3362028,-4.84942 0.934169,0.70427 1.712767,1.58428 2.29395,2.60011 0.64498,1.12737 1.057725,2.40983 1.187213,3.70417 0.780816,7.80772 -8.599731,12.93327 -14.716852,8.00535 -0.883445,-0.7117 -1.626825,-1.5407 -2.192393,-2.52924 -0.6449808,-1.12733 -1.0577138,-2.40982 -1.1871728,-3.70418 m 1.0307698,2.3399 c 2.083534,0.91327 4.165178,2.24907 6.128895,3.40872 0.998464,0.5896 2.220031,1.59372 3.374651,1.78224 l 0.131304,-3.2328 4.124759,1.31655 -1.209052,-1.09367 -2.637957,-1.9177 -1.427494,-0.85881 -0.531497,2.79872 -2.655253,-1.49189 -1.635718,-0.87597 2.803969,-2.16963 1.011997,-0.91351 -0.934579,-0.99258 -2.61878,-2.38987 4.568915,-1.90354 0.202727,2.72408 1.491025,-0.70541 2.784795,-1.69753 1.295175,-1.02674 -4.217943,0.9777 0.131304,-3.2328 c -1.056589,0.0855 -2.131088,0.87924 -3.082585,1.31399 -2.205045,1.00754 -4.822105,1.8097 -6.814872,3.19344 l -0.0042,0.10428 3.03027,2.54583 0.9592,0.95879 -1.034031,0.8836 -3.226517,2.28594 -0.0085,0.20857 m 8.306004,-2.90077 c 0.06627,0.54919 0.0647,1.22299 0.457627,1.66376 0.592425,0.66465 3.062434,1.06471 3.653407,0.27605 0.595172,-0.79421 -1.13334,-1.37086 -0.948165,-2.22917 0.139254,-0.64584 1.360322,-1.05689 1.210366,-1.72659 -0.191696,-0.85607 -1.578052,-0.73721 -2.216358,-0.65293 -1.49579,0.19756 -2.353247,1.04079 -2.156877,2.66888 m 1.920606,1.43303 c -0.320836,-1.01468 0.872316,-1.67182 1.184282,-0.36682 0.182862,0.76482 -0.979795,1.01318 -1.184282,0.36682 m 0.106889,-2.91752 c -0.09352,-0.82211 1.152268,-0.99817 1.226466,-0.26355 0.100208,0.9919 -1.082592,1.52798 -1.226466,0.26355 m 3.425077,2.5416 c -0.161061,0.36489 -0.36064,0.39505 -0.746931,0.38748 0.03327,1.07317 2.070316,0.5426 2.433425,-0.11878 0.13716,-0.24978 -0.05421,-0.48616 -0.106901,-0.72683 -0.05038,-0.23059 0.07821,-0.48651 -2.86e-4,-0.70508 -0.112818,-0.31357 -1.003977,-0.46153 -1.297784,-0.6243 -0.541429,-0.30005 -0.918841,-0.82168 -1.550247,-0.40829 -1.463491,0.95816 -0.09267,2.50335 1.268734,2.1958 m -0.540329,-2.84226 c 0.254115,0.59716 1.52295,1.30165 2.175087,1.09812 0.422237,-0.1318 0.897094,-1.08604 0.719731,-1.50282 -0.258211,-0.60693 -1.60708,-1.3366 -2.270708,-1.102 -0.367327,0.12996 -0.773425,1.15562 -0.62411,1.5067 m 1.214231,-0.89078 c 0.439677,0.0253 0.74423,0.0802 0.813094,0.5553 l -0.821566,-0.34673 z"
       id="path2713-7" />
    <path
       style="fill:#000000;fill-opacity:1;stroke:none;stroke-width:0.10437"
       d="m 100.23033,324.36811 c 0.75745,-0.16584 1.52547,-0.20788 2.27533,-0.44153 2.54686,-0.79357 4.81819,-2.62596 6.0611,-4.99324 3.31084,-6.30588 -0.58457,-14.28925 -7.70003,-15.3198 -1.178473,-0.17074 -2.382268,-0.15768 -3.549904,0.0731 -5.243699,1.03668 -9.176275,6.24939 -8.342106,11.61963 0.682895,4.39603 3.887876,8.02093 8.319035,8.8835 0.886262,0.17253 2.048937,0.37268 2.936575,0.17834 m 0.85868,-1.49314 c -1.01294,0.20024 -2.224857,0.19968 -3.238701,0.0299 -6.369142,-1.06692 -9.531731,-8.37136 -6.194236,-13.80851 0.611982,-0.99706 1.413747,-1.85602 2.369537,-2.53143 1.060741,-0.74952 2.297994,-1.28266 3.574092,-1.53497 7.697688,-1.52171 13.694308,7.32739 9.372098,13.88651 -0.62423,0.94728 -1.37857,1.76631 -2.30869,2.42356 -1.06069,0.74953 -2.29798,1.28267 -3.5741,1.53495 m 2.23095,-1.24918 c 0.71045,-2.16112 1.84169,-4.36064 2.80881,-6.42598 0.49172,-1.05014 1.3748,-2.36188 1.45236,-3.52921 l -3.23058,0.17753 0.91726,-4.23149 -0.9734,1.30781 -1.65745,2.8088 -0.71879,1.50287 2.83664,0.26223 -1.23191,2.7854 -0.71602,1.71179 -2.4271,-2.58433 -1.005829,-0.92028 -0.898954,1.02496 -2.129288,2.83471 -2.3305,-4.3666 2.692334,-0.46153 -0.844356,-1.41698 -1.955315,-2.61026 -1.145557,-1.19137 1.375416,4.10551 -3.230585,0.17753 c 0.185815,1.04363 1.078427,2.03755 1.601913,2.94326 1.213199,2.09893 2.261229,4.62758 3.828678,6.47933 l 0.104211,-0.006 2.245291,-3.25921 0.862971,-1.04624 0.97816,0.94507 2.58317,2.99386 0.20842,-0.0115 m -3.679507,-7.99158 c 0.540367,-0.11833 1.211247,-0.18101 1.612547,-0.61418 0.60513,-0.65309 0.76786,-3.15 -0.0735,-3.66308 -0.84734,-0.51673 -1.256557,1.25889 -2.128612,1.15639 -0.656176,-0.077 -1.181784,-1.25335 -1.834132,-1.04022 -0.833882,0.27243 -0.583387,1.64115 -0.438634,2.26851 0.339289,1.47014 1.260431,2.24329 2.86238,1.89258 m 1.243368,-2.04849 c -0.97946,0.41612 -1.747371,-0.70894 -0.47806,-1.14391 0.7439,-0.25495 1.10198,0.87873 0.47806,1.14391 m -2.914413,0.17178 c -0.80944,0.17148 -1.103489,-1.05185 -0.379294,-1.19575 0.97783,-0.19433 1.624246,0.93197 0.379294,1.19575 m 2.203443,-3.65181 c 0.37859,0.12553 0.42765,0.32133 0.45694,0.70658 1.06511,-0.13545 0.34272,-2.11262 -0.35026,-2.41101 -0.26172,-0.11272 -0.47878,0.10032 -0.713329,0.17571 -0.224741,0.0721 -0.491748,-0.0315 -0.701843,0.0675 -0.301382,0.1422 -0.363695,1.0434 -0.497707,1.35139 -0.247059,0.56757 -0.730333,0.993 -0.258627,1.58212 1.093342,1.36546 2.500786,-0.14645 2.064826,-1.47232 m -2.777785,0.80887 c 0.570205,-0.3099 1.150498,-1.64012 0.885724,-2.26988 -0.171462,-0.40775 -1.166627,-0.78946 -1.564598,-0.57316 -0.579539,0.3149 -1.177273,1.7272 -0.880467,2.36543 0.164392,0.35326 1.224099,0.65972 1.559341,0.47761 m -1.002502,-1.12377 c -0.01717,-0.44006 0.0088,-0.74848 0.475248,-0.86233 l -0.266823,0.85088 z"
       id="path2713-5" />
  </g>
</svg>
