<?xml version="1.0" encoding="UTF-8" standalone="no"?>
<svg
   xmlns:dc="http://purl.org/dc/elements/1.1/"
   xmlns:cc="http://creativecommons.org/ns#"
   xmlns:rdf="http://www.w3.org/1999/02/22-rdf-syntax-ns#"
   xmlns:svg="http://www.w3.org/2000/svg"
   xmlns="http://www.w3.org/2000/svg"
   xmlns:sodipodi="http://sodipodi.sourceforge.net/DTD/sodipodi-0.dtd"
   xmlns:inkscape="http://www.inkscape.org/namespaces/inkscape"
   width="324mm"
   height="458mm"
   viewBox="0 0 324 458"
   version="1.1"
   id="svg130"
   inkscape:version="1.0.2 (394de47547, 2021-03-26)"
   sodipodi:docname="prueba de impresion 02.svg">
  <defs
     id="defs124" />
  <sodipodi:namedview
     id="base"
     pagecolor="#ffffff"
     bordercolor="#666666"
     borderopacity="1.0"
     inkscape:pageopacity="0.0"
     inkscape:pageshadow="2"
     inkscape:zoom="0.5"
     inkscape:cx="81.403037"
     inkscape:cy="629.31951"
     inkscape:document-units="mm"
     inkscape:current-layer="layer1"
     inkscape:document-rotation="0"
     showgrid="false"
     inkscape:window-width="1920"
     inkscape:window-height="960"
     inkscape:window-x="0"
     inkscape:window-y="27"
     inkscape:window-maximized="1" />
  <metadata
     id="metadata127">
    <rdf:RDF>
      <cc:Work
         rdf:about="">
        <dc:format>image/svg+xml</dc:format>
        <dc:type
           rdf:resource="http://purl.org/dc/dcmitype/StillImage" />
        <dc:title></dc:title>
      </cc:Work>
    </rdf:RDF>
  </metadata>
  <g
     inkscape:label="Capa 1"
     inkscape:groupmode="layer"
     id="layer1">
    <path
       id="rect211"
       style="opacity:0.502211;fill:#00ff00;stroke:#ff1b0c;stroke-width:0.0996701"
       d="M 58.7797,0.84880594 V 3.8486259 h -9.00048 -1.49966 v 9.5001891 h -3.00033 v 8.99995 h 3.00033 v 8.99997 h -3.00033 v 8.99997 h 3.00033 v 8.99997 h -3.00033 v 8.99996 h 3.00033 v 8.99997 h -3.00033 v 3.03289 H 171.2793 v -3.03289 h -2.99983 v -8.99997 h 2.99983 v -8.99996 h -2.99983 v -8.99997 h 2.99983 v -8.99997 h -2.99983 v -8.99997 h 2.99983 v -8.99995 h -2.99983 V 4.3488459 3.8486259 H 157.77934 V 0.84880594 h -8.99997 V 3.8486259 H 139.7794 V 0.84880594 h -8.99996 V 3.8486259 h -8.99997 V 0.84880594 h -8.99996 V 3.8486259 h -8.99997 V 0.84880594 H 94.779569 V 3.8486259 H 85.7796 V 0.84880594 H 76.779634 V 3.8486259 h -8.99996 V 0.84880594 Z" />
    <path
       id="path1088"
       style="font-size:12px;fill:none;fill-rule:evenodd;stroke:#ff0000;stroke-width:0.1;stroke-linecap:round"
       d="m 76.728995,70.372711 v 0.0088 H 45.279234 v 5.966563 h 2.999816 v 8.999966 h -2.999816 v 8.900237 0.0997 h 2.999816 v 8.999953 h -2.999816 v 8.99997 h 2.999816 v 8.99997 0.50023 h 10.500135 v 2.99981 h 8.999969 v -2.99981 h 8.999966 v 2.99981 h 8.999966 v -2.99981 h 8.999969 v 2.99981 h 8.999965 v -2.99981 h 8.99997 v 2.99981 h 8.99997 v -2.99981 h 8.99997 v 2.99981 h 8.99997 v -2.99981 h 8.99996 v 2.99981 h 8.99997 v -2.99981 h 9.00048 1.49965 v -9.5002 h 3.00034 v -8.99997 h -3.00034 v -8.999953 h 3.00034 V 85.348 h -3.00034 v -8.999966 h 3.00034 v -5.966563 h -7.12566 -82.408415 v -0.0088 z m 5.01623,9.884669 h 82.408415 v 38.71391 H 81.745225 Z M 53.977411,94.248257 H 76.728995 V 118.97129 H 53.977411 Z" />
    <path
       id="right_outsideCutPath"
       style="font-size:12px;fill:none;fill-rule:evenodd;stroke:#ff0000;stroke-width:0.1;stroke-linecap:round"
       d="m 168.57547,121.84688 7.30017,-0.0476 0.0196,2.99976 8.99978,-0.0587 -0.0196,-2.99975 8.99977,-0.0587 0.0196,2.99976 8.99978,-0.0587 -0.0196,-2.99975 7.29966,-0.0476 -0.062,-9.49999 -2.99976,0.0196 -0.0587,-8.99977 2.99976,-0.0196 -0.0587,-8.999773 -2.99975,0.0196 -0.0587,-8.999766 2.99976,-0.0196 -0.0587,-8.99977 -2.99975,0.0196 -0.0587,-8.999781 2.99976,-0.01957 -0.0587,-8.999779 -2.99975,0.01957 -0.0587,-8.999778 2.99976,-0.01957 -0.0587,-8.999779 -2.99976,0.01957 -0.0587,-8.999769 2.99975,-0.01957 -0.0587,-8.999768 -2.99976,0.01957 -0.0587,-8.999769 2.99975,-0.01957 -0.0587,-8.9997971 -0.003,-0.50021 -7.29965,0.04763 -0.0196,-2.999757 -8.99978,0.05873 0.0196,2.999756 -8.99978,0.05873 -0.0196,-2.999756 -8.99978,0.05873 0.0196,2.999756 -7.30018,0.04764 0.062,9.5000061 3.00027,-0.01958 0.0587,8.999768 -3.00027,0.01958 0.0587,8.999768 3.00026,-0.01958 0.0587,8.999768 -3.00027,0.01958 0.0587,8.999778 3.00027,-0.01958 0.0587,8.999779 -3.00027,0.01958 0.0587,8.999779 3.00027,-0.01958 0.0587,8.999778 -3.00027,0.0196 0.0587,8.99977 3.00027,-0.0196 0.0587,8.999783 -3.00026,0.0196 0.0587,8.999763 3.00027,-0.0196 0.0587,8.99976 -3.00027,0.0196 0.0587,9.0003 z m 12.10871,-71.727837 -0.0845,-12.957584 13.42422,-0.0876 0.0846,12.957584 z m 4.01322,-29.550076 -0.0558,-8.554328 8.74036,-0.05703 0.0558,8.554328 z" />
    <path
       d="m 49.278955,121.8481 v 7.3 h -3 v 9 h 3 v 9 h -3 v 9 h 3 v 7.3 h 9.5 v -3 h 9 v 3 h 9 v -3 h 9 v 3 h 9 v -3 h 9.000005 v 3 h 9 v -3 h 9 v 3 h 9 v -3 h 9 v 3 h 9 v -3 h 9 v 3 h 9 0.5 v -7.3 h 3 v -9 h -3 v -9 h 3 v -9 h -3 v -7.3 h -9.5 v 3 h -9 v -3 h -9 v 3 h -9 v -3 h -9 v 3 h -9 v -3 h -9 v 3 h -9.000005 v -3 h -9 v 3 h -9 v -3 h -9 v 3 h -9 v -3 h -9 z"
       id="left_outsideCutPath"
       stroke="#FF0000"
       stroke-width="0.1"
       style="font-size:12px;fill:none;fill-opacity:1;fill-rule:evenodd;stroke:#e31414;stroke-width:1.4;stroke-linecap:round;stroke-miterlimit:4;stroke-dasharray:none;stroke-opacity:0.543019"
       vector-effect="non-scaling-stroke" />
    <path
       d="m 48.278955,163.4481 v 9.5 h -3 v 9 h 3 v 9 h -3 v 9 h 3 v 9 h -3 v 9 h 3 v 9.00001 h -3 v 8.99999 h 3 v 9 h -3 v 9 h 3 v 9 h -3 v 9 h 3 v 9 0.5 h 10.5 v 3 h 9 v -3 h 9 v 3 h 9 v -3 h 9 v 3 h 9.000005 v -3 h 9 v 3 h 9 v -3 h 9 v 3 h 9 v -3 h 9 v 3 h 9 v -3 h 9 1.5 v -9.5 h 3 v -9 h -3 v -9 h 3 v -9 h -3 v -9 h 3 v -8.99999 h -3 v -9 h 3 v -9 h -3 v -9 h 3 v -9.00001 h -3 v -9 h 3 v -9 h -3 v -9 -0.5 h -10.5 v -3 h -9 v 3 h -9 v -3 h -9 v 3 h -9 v -3 h -9 v 3 h -9 v -3 h -9.000005 v 3 h -9 v -3 h -9 v 3 h -9 v -3 h -9 v 3 h -9 z"
       id="bottom_outsideCutPath"
       stroke="#FF0000"
       stroke-width="0.1"
       style="font-size:12px;fill:none;fill-rule:evenodd;stroke:#ff0000;stroke-width:1;stroke-linecap:round;stroke-miterlimit:4;stroke-dasharray:none;stroke-opacity:0.990142"
       vector-effect="non-scaling-stroke" />
    <path
       d="m 6.6448733,281.42506 7.2999997,0.004 -0.0016,3 8.999998,0.005 0.0016,-2.99999 8.999998,0.005 -0.0016,3.00001 8.999998,0.005 0.0016,-2.99999 7.299999,0.004 0.0051,-9.5 -3,-0.002 0.0048,-9 3,0.002 0.0048,-9 -2.999999,-0.002 0.0048,-8.99999 2.999999,0.002 0.0048,-9 -3,-0.002 0.0048,-9 2.999998,0.002 0.0048,-9 -2.999998,-0.002 0.0048,-9 2.999998,0.002 0.0048,-8.99999 -2.999998,-0.002 0.0048,-9 2.999998,0.002 0.0048,-9 -2.999998,-0.002 0.0048,-9 2.999998,0.002 0.0048,-8.99999 2.7e-4,-0.50001 -7.299999,-0.004 0.0016,-3 -8.999998,-0.005 -0.0016,2.99999 -8.999998,-0.005 0.0016,-3.00001 -8.999998,-0.005 -0.0016,2.99999 -7.3000003,-0.004 -0.0051,9.5 2.999999,0.002 -0.0048,9 -2.999998,-0.002 -0.0048,9 2.999998,0.002 -0.0048,9 -2.999998,-0.002 -0.0048,8.99999 2.999998,0.002 -0.0048,9 -2.999999,-0.002 -0.0048,9 2.999999,0.002 -0.0048,9.00001 -3,-0.002 -0.0048,9 2.999999,0.002 -0.0048,8.99999 -2.999998,-0.002 -0.0048,9 2.999999,0.002 -0.0048,9 -2.999999,-0.002 -0.0048,8.99999 z"
       id="left_outsideCutPath-3"
       stroke="#FF0000"
       stroke-width="0.1"
       style="font-size:12px;fill:none;fill-rule:evenodd;stroke:#ff0000;stroke-width:1;stroke-linecap:round;stroke-miterlimit:4;stroke-dasharray:none"
       vector-effect="non-scaling-stroke" />
    <path
       d="m 167.29957,323.05951 0.005,-7.30002 3.00001,0.002 0.006,-9.00001 -2.99998,-0.002 0.006,-9.00001 3.00002,0.002 0.006,-9.00001 -2.99998,-0.002 0.005,-7.29999 -9.5,-0.006 -0.002,2.99999 -9.00001,-0.006 0.002,-3 -8.99999,-0.006 -0.002,2.99998 -8.99999,-0.006 0.002,-3.00002 -9,-0.006 -0.002,3 -9.00001,-0.006 0.002,-3.00001 -9,-0.006 -0.002,3 -8.999997,-0.006 0.002,-3 -8.999993,-0.006 -0.002,3 -9.000005,-0.006 0.002,-3 -9.000006,-0.006 -0.002,3 -9.000007,-0.006 0.002,-3 -8.999995,-0.006 -0.5,-3.1e-4 -0.0051,7.30001 -2.999992,-0.002 -0.0059,9 2.999983,0.002 -0.0059,9 -3.000012,-0.002 -0.0058,9.00001 2.999993,0.002 -0.0051,7.3 9.500007,0.006 0.002,-2.99999 8.999995,0.006 -0.002,3 9.000007,0.006 0.002,-2.99998 9.000005,0.006 -0.002,3.00001 8.999993,0.006 0.002,-3.00001 9.000004,0.006 -0.002,3.00002 8.99998,0.006 0.002,-3 9.00002,0.006 -0.002,3 9.00001,0.006 0.002,-3 9,0.006 -0.002,3 9.00001,0.006 0.002,-3 9.00002,0.006 -0.002,3.00001 8.99999,0.006 z"
       id="left_outsideCutPath-3-6"
       stroke="#FF0000"
       stroke-width="0.1"
       style="font-size:12px;fill:none;fill-rule:evenodd;stroke:#ff0000;stroke-width:1;stroke-linecap:round;stroke-miterlimit:4;stroke-dasharray:none"
       vector-effect="non-scaling-stroke" />
    <path
       style="fill:#000000;fill-opacity:1;stroke:none;stroke-width:0.10437"
       d="m 107.93316,132.21551 c -0.76541,0.12402 -1.53459,0.12386 -2.29613,0.31601 -2.58657,0.65262 -4.95502,2.35762 -6.325962,4.65314 -3.651865,6.11471 -0.20038,14.2998 6.847812,15.71923 1.16733,0.23514 2.37003,0.28816 3.54857,0.1218 5.29269,-0.74739 9.50537,-5.73647 8.96713,-11.14439 -0.44065,-4.42688 -3.4419,-8.22218 -7.81906,-9.32659 -0.87546,-0.2209 -2.0254,-0.48455 -2.92236,-0.3392 m -0.93932,1.44377 c 1.0224,-0.14436 2.23246,-0.0773 3.23546,0.14787 6.30101,1.41479 9.05803,8.88176 5.42722,14.12759 -0.66577,0.96198 -1.51346,1.77565 -2.50487,2.39759 -1.10027,0.69019 -2.36492,1.15464 -3.65294,1.33655 -7.76959,1.09703 -13.27161,-8.06778 -8.596,-14.37985 0.67526,-0.9116 1.4734,-1.68801 2.43819,-2.29323 1.10022,-0.6902 2.3649,-1.15464 3.65294,-1.33652 m -2.29614,1.12488 c -0.82796,2.11888 -2.07819,4.25302 -3.15718,6.26218 -0.5486,1.02157 -1.50232,2.28288 -1.643823,3.4442 h 3.235463 l -1.14807,4.17479 1.0437,-1.25243 1.80907,-2.71362 0.80017,-1.46117 -2.81798,-0.41748 1.3829,-2.71361 0.80886,-1.66992 2.28164,2.71361 0.95382,0.97409 0.95384,-0.97409 2.28163,-2.71361 2.08739,4.4879 -2.71361,0.31311 0.76534,1.46117 1.80914,2.71362 1.07846,1.25243 -1.14807,-4.17479 h 3.23546 c -0.12827,-1.05225 -0.965,-2.09365 -1.438,-3.02672 -1.0962,-2.16234 -2.0039,-4.74469 -3.46738,-6.67966 h -0.10437 l -2.42075,3.13109 -0.91908,0.99732 -0.92483,-0.99732 -2.415,-3.13109 h -0.20874 m 3.23546,8.18144 c -0.54605,0.0885 -1.21936,0.11428 -1.64382,0.52477 -0.64006,0.61891 -0.93954,3.10312 -0.12756,3.6616 0.81772,0.56245 1.32374,-1.18804 2.18886,-1.03785 0.65096,0.11293 1.11123,1.31631 1.77429,1.1393 0.84758,-0.22627 0.67256,-1.60667 0.56245,-2.24103 -0.25811,-1.48654 -1.13544,-2.30907 -2.75422,-2.04679 m -1.3539,1.97718 c 1.00082,-0.36175 1.70584,0.80375 0.41458,1.16842 -0.75678,0.21375 -1.05211,-0.93787 -0.41458,-1.16842 m 2.91945,-0.0116 c 0.81763,-0.12681 1.04411,1.11081 0.31311,1.21476 -0.98702,0.14038 -1.57066,-1.01969 -0.31311,-1.21476 m -2.4005,3.5254 c -0.37113,-0.14612 -0.40937,-0.34431 -0.41748,-0.73059 -1.07094,0.0768 -0.45813,2.09063 0.21743,2.4266 0.25514,0.12691 0.48357,-0.0739 0.7219,-0.13631 0.22836,-0.0597 0.48928,0.0584 0.70449,-0.0289 0.30873,-0.12545 0.4204,-1.02188 0.57111,-1.32205 0.27783,-0.55316 0.78372,-0.95143 0.34505,-1.56554 -1.01677,-1.4234 -2.50505,0.009 -2.1425,1.3568 m 2.81798,-0.65523 c -0.58635,0.27814 -1.23876,1.57452 -1.00894,2.21786 0.14883,0.41654 1.12155,0.85228 1.53079,0.65815 0.59595,-0.28263 1.27028,-1.66 1.00894,-2.31356 -0.14476,-0.36175 -1.18606,-0.72589 -1.53079,-0.56245 m 0.93933,1.17708 c -0.007,0.44034 -0.0499,0.74687 -0.52185,0.83496 l 0.31311,-0.83496 z"
       id="path2713" />
    <path
       style="fill:#000000;fill-opacity:1;stroke:none;stroke-width:0.10437"
       d="m 17.030748,222.35718 c 0.09286,0.76982 0.06148,1.53835 0.222566,2.30707 0.547113,2.61092 2.15459,5.04662 4.392583,6.50958 5.961469,3.89701 14.279886,0.78054 15.984182,-6.20424 0.282319,-1.15683 0.384104,-2.35638 0.26571,-3.5407 -0.531983,-5.31866 -5.345991,-9.73034 -10.771299,-9.41201 -4.441116,0.26063 -8.355087,3.10538 -9.636225,7.43412 -0.256246,0.86577 -0.566347,2.00407 -0.457517,2.90618 m 1.40446,0.99714 c -0.102749,-1.02742 0.01336,-2.23376 0.279052,-3.22679 1.669336,-6.2384 9.242042,-8.69013 14.336202,-4.84942 0.934169,0.70427 1.712767,1.58428 2.29395,2.60011 0.64498,1.12737 1.057725,2.40983 1.187213,3.70417 0.780816,7.80772 -8.599731,12.93327 -14.716851,8.00535 -0.883445,-0.7117 -1.626825,-1.5407 -2.192393,-2.52924 -0.644981,-1.12733 -1.057714,-2.40982 -1.187173,-3.70418 m 1.03077,2.3399 c 2.083534,0.91327 4.165177,2.24907 6.128894,3.40872 0.998464,0.5896 2.220031,1.59372 3.374651,1.78224 l 0.131304,-3.2328 4.124759,1.31655 -1.209052,-1.09367 -2.637957,-1.9177 -1.427494,-0.85881 -0.531497,2.79872 -2.655253,-1.49189 -1.635718,-0.87597 2.803969,-2.16963 1.011997,-0.91351 -0.934579,-0.99258 -2.61878,-2.38987 4.568915,-1.90354 0.202727,2.72408 1.491025,-0.70541 2.784795,-1.69753 1.295175,-1.02674 -4.217943,0.9777 0.131304,-3.2328 c -1.056589,0.0855 -2.131088,0.87924 -3.082585,1.31399 -2.205045,1.00754 -4.822104,1.8097 -6.814871,3.19344 l -0.0042,0.10428 3.030269,2.54583 0.9592,0.95879 -1.034031,0.8836 -3.226516,2.28594 -0.0085,0.20857 m 8.306003,-2.90077 c 0.06627,0.54919 0.0647,1.22299 0.457627,1.66376 0.592425,0.66465 3.062434,1.06471 3.653407,0.27605 0.595172,-0.79421 -1.13334,-1.37086 -0.948165,-2.22917 0.139254,-0.64584 1.360322,-1.05689 1.210366,-1.72659 -0.191696,-0.85607 -1.578052,-0.73721 -2.216358,-0.65293 -1.49579,0.19756 -2.353247,1.04079 -2.156877,2.66888 m 1.920606,1.43303 c -0.320836,-1.01468 0.872316,-1.67182 1.184282,-0.36682 0.182862,0.76482 -0.979795,1.01318 -1.184282,0.36682 m 0.106889,-2.91752 c -0.09352,-0.82211 1.152268,-0.99817 1.226466,-0.26355 0.100208,0.9919 -1.082592,1.52798 -1.226466,0.26355 m 3.425077,2.5416 c -0.161061,0.36489 -0.36064,0.39505 -0.746931,0.38748 0.03327,1.07317 2.070316,0.5426 2.433425,-0.11878 0.13716,-0.24978 -0.05421,-0.48616 -0.106901,-0.72683 -0.05038,-0.23059 0.07821,-0.48651 -2.86e-4,-0.70508 -0.112818,-0.31357 -1.003977,-0.46153 -1.297784,-0.6243 -0.541429,-0.30005 -0.918841,-0.82168 -1.550247,-0.40829 -1.463491,0.95816 -0.09267,2.50335 1.268734,2.1958 m -0.540329,-2.84226 c 0.254115,0.59716 1.52295,1.30165 2.175087,1.09812 0.422237,-0.1318 0.897094,-1.08604 0.719731,-1.50282 -0.258211,-0.60693 -1.60708,-1.3366 -2.270708,-1.102 -0.367327,0.12996 -0.773425,1.15562 -0.62411,1.5067 m 1.214231,-0.89078 c 0.439677,0.0253 0.74423,0.0802 0.813094,0.5553 l -0.821566,-0.34673 z"
       id="path2713-7" />
    <path
       style="fill:#000000;fill-opacity:1;stroke:none;stroke-width:0.10437"
       d="m 109.23209,312.61556 c 0.75745,-0.16584 1.52547,-0.20788 2.27533,-0.44153 2.54686,-0.79357 4.81819,-2.62596 6.0611,-4.99324 3.31084,-6.30588 -0.58457,-14.28925 -7.70003,-15.3198 -1.17848,-0.17074 -2.38227,-0.15768 -3.54991,0.0731 -5.2437,1.03668 -9.176274,6.24939 -8.342105,11.61963 0.682895,4.39603 3.887875,8.02093 8.319035,8.8835 0.88626,0.17253 2.04894,0.37268 2.93658,0.17834 m 0.85868,-1.49314 c -1.01294,0.20024 -2.22486,0.19968 -3.23871,0.0299 -6.36914,-1.06692 -9.531727,-8.37136 -6.19423,-13.80851 0.61198,-0.99706 1.41375,-1.85602 2.36954,-2.53143 1.06074,-0.74952 2.29799,-1.28266 3.57409,-1.53497 7.69769,-1.52171 13.69431,7.32739 9.3721,13.88651 -0.62423,0.94728 -1.37857,1.76631 -2.30869,2.42356 -1.06069,0.74953 -2.29798,1.28267 -3.5741,1.53495 m 2.23095,-1.24918 c 0.71045,-2.16112 1.84169,-4.36064 2.80881,-6.42598 0.49172,-1.05014 1.3748,-2.36188 1.45236,-3.52921 l -3.23058,0.17753 0.91726,-4.23149 -0.9734,1.30781 -1.65745,2.8088 -0.71879,1.50287 2.83664,0.26223 -1.23191,2.7854 -0.71602,1.71179 -2.4271,-2.58433 -1.00583,-0.92028 -0.89896,1.02496 -2.12929,2.83471 -2.3305,-4.3666 2.69234,-0.46153 -0.84436,-1.41698 -1.95531,-2.61026 -1.14556,-1.19137 1.37542,4.10551 -3.230589,0.17753 c 0.185819,1.04363 1.078429,2.03755 1.601909,2.94326 1.2132,2.09893 2.26123,4.62758 3.82868,6.47933 l 0.10421,-0.006 2.24529,-3.25921 0.86298,-1.04624 0.97816,0.94507 2.58317,2.99386 0.20842,-0.0115 m -3.67951,-7.99158 c 0.54037,-0.11833 1.21125,-0.18101 1.61255,-0.61418 0.60513,-0.65309 0.76786,-3.15 -0.0735,-3.66308 -0.84734,-0.51673 -1.25656,1.25889 -2.12862,1.15639 -0.65617,-0.077 -1.18178,-1.25335 -1.83413,-1.04022 -0.83388,0.27243 -0.58339,1.64115 -0.43863,2.26851 0.33929,1.47014 1.26043,2.24329 2.86238,1.89258 m 1.24337,-2.04849 c -0.97946,0.41612 -1.74738,-0.70894 -0.47806,-1.14391 0.7439,-0.25495 1.10198,0.87873 0.47806,1.14391 m -2.91442,0.17178 c -0.80944,0.17148 -1.10349,-1.05185 -0.37929,-1.19575 0.97783,-0.19433 1.62424,0.93197 0.37929,1.19575 m 2.20345,-3.65181 c 0.37859,0.12553 0.42765,0.32133 0.45694,0.70658 1.06511,-0.13545 0.34272,-2.11262 -0.35026,-2.41101 -0.26172,-0.11272 -0.47878,0.10032 -0.71333,0.17571 -0.22474,0.0721 -0.49175,-0.0315 -0.70185,0.0675 -0.30138,0.1422 -0.36369,1.0434 -0.4977,1.35139 -0.24706,0.56757 -0.73034,0.993 -0.25863,1.58212 1.09334,1.36546 2.50079,-0.14645 2.06483,-1.47232 m -2.77779,0.80887 c 0.57021,-0.3099 1.1505,-1.64012 0.88572,-2.26988 -0.17146,-0.40775 -1.16662,-0.78946 -1.56459,-0.57316 -0.57954,0.3149 -1.17728,1.7272 -0.88047,2.36543 0.16439,0.35326 1.2241,0.65972 1.55934,0.47761 m -1.0025,-1.12377 c -0.0172,-0.44006 0.009,-0.74848 0.47525,-0.86233 l -0.26683,0.85088 z"
       id="path2713-5" />
  </g>
</svg>
