<?xml version="1.0" encoding="UTF-8" standalone="no"?>
<svg
   xmlns:dc="http://purl.org/dc/elements/1.1/"
   xmlns:cc="http://creativecommons.org/ns#"
   xmlns:rdf="http://www.w3.org/1999/02/22-rdf-syntax-ns#"
   xmlns:svg="http://www.w3.org/2000/svg"
   xmlns="http://www.w3.org/2000/svg"
   xmlns:sodipodi="http://sodipodi.sourceforge.net/DTD/sodipodi-0.dtd"
   xmlns:inkscape="http://www.inkscape.org/namespaces/inkscape"
   width="324mm"
   height="458mm"
   viewBox="0 0 324 458"
   version="1.1"
   id="svg130"
   inkscape:version="1.0.2 (394de47547, 2021-03-26)"
   sodipodi:docname="prueba de impresion 02.svg">
  <defs
     id="defs124" />
  <sodipodi:namedview
     id="base"
     pagecolor="#ffffff"
     bordercolor="#666666"
     borderopacity="1.0"
     inkscape:pageopacity="0.0"
     inkscape:pageshadow="2"
     inkscape:zoom="0.70710678"
     inkscape:cx="347.2654"
     inkscape:cy="686.27591"
     inkscape:document-units="mm"
     inkscape:current-layer="layer1"
     inkscape:document-rotation="0"
     showgrid="false"
     inkscape:window-width="1920"
     inkscape:window-height="960"
     inkscape:window-x="0"
     inkscape:window-y="27"
     inkscape:window-maximized="1" />
  <metadata
     id="metadata127">
    <rdf:RDF>
      <cc:Work
         rdf:about="">
        <dc:format>image/svg+xml</dc:format>
        <dc:type
           rdf:resource="http://purl.org/dc/dcmitype/StillImage" />
        <dc:title></dc:title>
      </cc:Work>
    </rdf:RDF>
  </metadata>
  <g
     inkscape:label="Capa 1"
     inkscape:groupmode="layer"
     id="layer1">
    <path
       id="path1088"
       style="font-size:12px;fill:none;fill-rule:evenodd;stroke:#ff0000;stroke-width:0.1;stroke-linecap:round"
       d="m 50.464323,27.855694 v 0.0088 H 19.014562 v 5.966563 h 2.999816 v 8.999966 h -2.999816 v 8.900237 0.0997 h 2.999816 v 8.999953 h -2.999816 v 8.99997 h 2.999816 v 8.99997 0.50023 h 10.500135 v 2.99981 h 8.999969 v -2.99981 h 8.999966 v 2.99981 h 8.999966 v -2.99981 h 8.999969 v 2.99981 h 8.999965 v -2.99981 h 8.99997 v 2.99981 h 8.99997 v -2.99981 h 8.999972 v 2.99981 h 8.99997 v -2.99981 h 8.99996 v 2.99981 h 8.99997 v -2.99981 h 9.00048 1.49965 v -9.5002 h 3.00034 v -8.99997 h -3.00034 V 51.83096 h 3.00034 v -8.999977 h -3.00034 v -8.999966 h 3.00034 v -5.966563 h -7.12566 -82.408417 v -0.0088 z m 5.01623,9.884669 h 82.408417 v 38.71391 H 55.480553 Z M 27.712739,51.73124 H 50.464323 V 76.454273 H 27.712739 Z" />
    <path
       id="right_outsideCutPath"
       style="font-size:12px;fill:none;fill-rule:evenodd;stroke:#ff0000;stroke-width:0.1;stroke-linecap:round"
       d="m 189.03586,144.78506 7.30017,-0.0476 0.0196,2.99976 8.99978,-0.0587 -0.0196,-2.99975 8.99977,-0.0587 0.0196,2.99976 8.99978,-0.0587 -0.0196,-2.99975 7.29966,-0.0476 -0.062,-9.49999 -2.99976,0.0196 -0.0587,-8.99977 2.99976,-0.0196 -0.0587,-8.99977 -2.99975,0.0196 -0.0587,-8.99976 2.99976,-0.0196 -0.0587,-8.999774 -2.99975,0.0196 -0.0587,-8.999781 2.99976,-0.01957 -0.0587,-8.999779 -2.99975,0.01957 -0.0587,-8.999778 2.99976,-0.01957 -0.0587,-8.999779 -2.99976,0.01957 -0.0587,-8.999769 2.99975,-0.01957 -0.0587,-8.999768 -2.99976,0.01957 -0.0587,-8.999769 2.99975,-0.01957 -0.0587,-8.999797 -0.003,-0.50021 -7.29965,0.04763 -0.0196,-2.999757 -8.99978,0.05873 0.0196,2.999756 -8.99978,0.05873 -0.0196,-2.999756 -8.99978,0.05873 0.0196,2.999756 -7.30018,0.04764 0.062,9.500006 3.00027,-0.01958 0.0587,8.999768 -3.00027,0.01958 0.0587,8.999768 3.00026,-0.01958 0.0587,8.999768 -3.00027,0.01958 0.0587,8.999778 3.00027,-0.01958 0.0587,8.999779 -3.00027,0.01958 0.0587,8.999779 3.00027,-0.01958 0.0587,8.999778 -3.00027,0.0196 0.0587,8.999771 3.00027,-0.0196 0.0587,8.99978 -3.00026,0.0196 0.0587,8.99976 3.00027,-0.0196 0.0587,8.99976 -3.00027,0.0196 0.0587,9.0003 z m 12.10871,-71.727832 -0.0845,-12.957584 13.42422,-0.0876 0.0846,12.957584 z m 4.01322,-29.550076 -0.0558,-8.554328 8.74036,-0.05703 0.0558,8.554328 z" />
    <path
       d="m 26.433155,90.61551 v 7.3 h -3 v 9 h 3 v 9 h -3 v 9 h 3 v 7.3 h 9.5 v -3 h 9 v 3 h 9 v -3 h 9 v 3 h 9 v -3 h 9.000005 v 3 h 9 v -3 h 9 v 3 h 9 v -3 h 9 v 3 h 9 v -3 h 9 v 3 h 9 0.5 v -7.3 h 3 v -9 h -3 v -9 h 3 v -9 h -3 v -7.3 h -9.5 v 3 h -9 v -3 h -9 v 3 h -9 v -3 h -9 v 3 h -9 v -3 h -9 v 3 h -9.000005 v -3 h -9 v 3 h -9 v -3 h -9 v 3 h -9 v -3 h -9 z"
       id="left_outsideCutPath"
       stroke="#FF0000"
       stroke-width="0.1"
       style="font-size:12px;fill:none;fill-opacity:1;fill-rule:evenodd;stroke:#e31414;stroke-width:1.4;stroke-linecap:round;stroke-miterlimit:4;stroke-dasharray:none;stroke-opacity:0.543019"
       vector-effect="non-scaling-stroke" />
    <path
       d="m 66.095485,149.36895 v 9.5 h -3 v 9 h 3 v 9 h -3 v 9 h 3 v 9 h -3 v 9 h 3 v 9.00001 h -3 v 8.99999 h 3 v 9 h -3 v 9 h 3 v 9 h -3 v 9 h 3 v 9 0.5 h 10.5 v 3 h 9 v -3 h 9 v 3 h 9.000005 v -3 h 9 v 3 h 9 v -3 h 9 v 3 h 9 v -3 h 9 v 3 h 9 v -3 h 9 v 3 h 9 v -3 h 9 1.5 v -9.5 h 3 v -9 h -3 v -9 h 3 v -9 h -3 v -9 h 3 v -8.99999 h -3 v -9 h 3 v -9 h -3 v -9 h 3 v -9.00001 h -3 v -9 h 3 v -9 h -3 v -9 -0.5 h -10.5 v -3 h -9 v 3 h -9 v -3 h -9 v 3 h -9 v -3 h -9 v 3 h -9 v -3 h -9 v 3 h -9 v -3 h -9.000005 v 3 h -9 v -3 h -9 v 3 h -9 z"
       id="bottom_outsideCutPath"
       stroke="#FF0000"
       stroke-width="0.1"
       style="font-size:12px;fill:none;fill-rule:evenodd;stroke:#ff0000;stroke-width:1;stroke-linecap:round;stroke-miterlimit:4;stroke-dasharray:none;stroke-opacity:0.990142"
       vector-effect="non-scaling-stroke" />
    <path
       d="m 6.6448733,281.42506 7.2999997,0.004 -0.0016,3 8.999998,0.005 0.0016,-2.99999 8.999998,0.005 -0.0016,3.00001 8.999998,0.005 0.0016,-2.99999 7.299999,0.004 0.0051,-9.5 -3,-0.002 0.0048,-9 3,0.002 0.0048,-9 -2.999999,-0.002 0.0048,-8.99999 2.999999,0.002 0.0048,-9 -3,-0.002 0.0048,-9 2.999998,0.002 0.0048,-9 -2.999998,-0.002 0.0048,-9 2.999998,0.002 0.0048,-8.99999 -2.999998,-0.002 0.0048,-9 2.999998,0.002 0.0048,-9 -2.999998,-0.002 0.0048,-9 2.999998,0.002 0.0048,-8.99999 2.7e-4,-0.50001 -7.299999,-0.004 0.0016,-3 -8.999998,-0.005 -0.0016,2.99999 -8.999998,-0.005 0.0016,-3.00001 -8.999998,-0.005 -0.0016,2.99999 -7.3000003,-0.004 -0.0051,9.5 2.999999,0.002 -0.0048,9 -2.999998,-0.002 -0.0048,9 2.999998,0.002 -0.0048,9 -2.999998,-0.002 -0.0048,8.99999 2.999998,0.002 -0.0048,9 -2.999999,-0.002 -0.0048,9 2.999999,0.002 -0.0048,9.00001 -3,-0.002 -0.0048,9 2.999999,0.002 -0.0048,8.99999 -2.999998,-0.002 -0.0048,9 2.999999,0.002 -0.0048,9 -2.999999,-0.002 -0.0048,8.99999 z"
       id="left_outsideCutPath-3"
       stroke="#FF0000"
       stroke-width="0.1"
       style="font-size:12px;fill:none;fill-rule:evenodd;stroke:#ff0000;stroke-width:1;stroke-linecap:round;stroke-miterlimit:4;stroke-dasharray:none"
       vector-effect="non-scaling-stroke" />
    <path
       d="m 191.44144,320.44658 0.005,-7.30002 3.00001,0.002 0.006,-9.00001 -2.99998,-0.002 0.006,-9.00001 3.00002,0.002 0.006,-9.00001 -2.99998,-0.002 0.005,-7.29999 -9.5,-0.006 -0.002,2.99999 -9.00001,-0.006 0.002,-3 -8.99999,-0.006 -0.002,2.99998 -8.99999,-0.006 0.002,-3.00002 -9,-0.006 -0.002,3 -9.00001,-0.006 0.002,-3.00001 -9,-0.006 -0.002,3 -9,-0.006 0.002,-3 -8.99999,-0.006 -0.002,3 -9.00001,-0.006 0.002,-3 -9.000001,-0.006 -0.002,3 -9.000007,-0.006 0.002,-3 -8.999995,-0.006 -0.5,-3.1e-4 -0.0051,7.30001 -2.999992,-0.002 -0.0059,9 2.999983,0.002 -0.0059,9 -3.000012,-0.002 -0.0058,9.00001 2.999993,0.002 -0.0051,7.3 9.500007,0.006 0.002,-2.99999 8.999995,0.006 -0.002,3 9.000009,0.006 0.002,-2.99998 9,0.006 -0.002,3.00001 9,0.006 0.002,-3.00001 9,0.006 -0.002,3.00002 8.99998,0.006 0.002,-3 9.00002,0.006 -0.002,3 9.00001,0.006 0.002,-3 9,0.006 -0.002,3 9.00001,0.006 0.002,-3 9.00002,0.006 -0.002,3.00001 8.99999,0.006 z"
       id="left_outsideCutPath-3-6"
       stroke="#FF0000"
       stroke-width="0.1"
       style="font-size:12px;fill:none;fill-rule:evenodd;stroke:#ff0000;stroke-width:1;stroke-linecap:round;stroke-miterlimit:4;stroke-dasharray:none"
       vector-effect="non-scaling-stroke" />
  </g>
</svg>
