<?xml version="1.0" encoding="UTF-8" standalone="no"?>
<svg
   xmlns:dc="http://purl.org/dc/elements/1.1/"
   xmlns:cc="http://creativecommons.org/ns#"
   xmlns:rdf="http://www.w3.org/1999/02/22-rdf-syntax-ns#"
   xmlns:svg="http://www.w3.org/2000/svg"
   xmlns="http://www.w3.org/2000/svg"
   xmlns:sodipodi="http://sodipodi.sourceforge.net/DTD/sodipodi-0.dtd"
   xmlns:inkscape="http://www.inkscape.org/namespaces/inkscape"
   width="265mm"
   height="63mm"
   viewBox="0 0 265 63"
   version="1.1"
   preserveAspectRatio="xMidYMid meet"
   id="svg1063"
   sodipodi:docname="vans.svg"
   inkscape:version="1.0.2 (394de47547, 2021-03-26)">
  <metadata
     id="metadata1069">
    <rdf:RDF>
      <cc:Work
         rdf:about="">
        <dc:format>image/svg+xml</dc:format>
        <dc:type
           rdf:resource="http://purl.org/dc/dcmitype/StillImage" />
        <dc:title></dc:title>
      </cc:Work>
    </rdf:RDF>
  </metadata>
  <defs
     id="defs1067" />
  <sodipodi:namedview
     pagecolor="#ffffff"
     bordercolor="#666666"
     borderopacity="1"
     objecttolerance="10"
     gridtolerance="10"
     guidetolerance="10"
     inkscape:pageopacity="0"
     inkscape:pageshadow="2"
     inkscape:window-width="1920"
     inkscape:window-height="960"
     id="namedview1065"
     showgrid="false"
     inkscape:zoom="1.0335766"
     inkscape:cx="514.49895"
     inkscape:cy="167.46573"
     inkscape:window-x="0"
     inkscape:window-y="27"
     inkscape:window-maximized="1"
     inkscape:current-layer="svg1063" />
  <g
     id="svgGroup"
     stroke-linecap="round"
     fill-rule="evenodd"
     font-size="9pt"
     stroke="#000"
     stroke-width="0.25mm"
     fill="none"
     style="stroke:#000;stroke-width:0.25mm;fill:none">
    <path
       d="M 0 33 L 0 37.875 L 3 37.875 L 3 44.625 L 0 44.625 L 0 51.375 L 3 51.375 L 3 58.125 L 0 58.125 L 0 63 L 8.375 63 L 8.375 60 L 15.125 60 L 15.125 63 L 21.875 63 L 21.875 60 L 28.625 60 L 28.625 63 L 35.375 63 L 35.375 60 L 42.125 60 L 42.125 63 L 48.875 63 L 48.875 60 L 55.625 60 L 55.625 63 L 62.375 63 L 62.375 60 L 69.125 60 L 69.125 63 L 75.875 63 L 75.875 60 L 82.625 60 L 82.625 63 L 89.375 63 L 89.375 60 L 96.125 60 L 96.125 63 L 102.875 63 L 102.875 60 L 109.625 60 L 109.625 63 L 118 63 L 118 58.125 L 115 58.125 L 115 51.375 L 118 51.375 L 118 44.625 L 115 44.625 L 115 37.875 L 118 37.875 L 118 33 L 109.625 33 L 109.625 36 L 102.875 36 L 102.875 33 L 96.125 33 L 96.125 36 L 89.375 36 L 89.375 33 L 82.625 33 L 82.625 36 L 75.875 36 L 75.875 33 L 69.125 33 L 69.125 36 L 62.375 36 L 62.375 33 L 55.625 33 L 55.625 36 L 48.875 36 L 48.875 33 L 42.125 33 L 42.125 36 L 35.375 36 L 35.375 33 L 28.625 33 L 28.625 36 L 21.875 36 L 21.875 33 L 15.125 33 L 15.125 36 L 8.375 36 L 8.375 33 L 0 33 Z"
       id="front_outsideCutPath"
       stroke="#FF0000"
       stroke-width="0.1"
       style="stroke:#FF0000;stroke-width:0.1"
       vector-effect="non-scaling-stroke" />
    <path
       d="M 63.373 50.266 L 62.886 50.266 L 62.886 48.189 A 1.375 1.375 0 0 0 62.87 47.973 Q 62.833 47.739 62.708 47.603 A 0.548 0.548 0 0 0 62.483 47.459 Q 62.394 47.428 62.286 47.417 A 1.289 1.289 0 0 0 62.148 47.41 A 1.472 1.472 0 0 0 61.873 47.434 Q 61.719 47.463 61.601 47.528 A 0.686 0.686 0 0 0 61.41 47.682 A 0.795 0.795 0 0 0 61.271 47.924 Q 61.188 48.145 61.177 48.476 A 3.116 3.116 0 0 0 61.175 48.581 L 61.175 50.266 L 60.689 50.266 L 60.689 47.055 L 61.084 47.055 L 61.164 47.495 L 61.187 47.495 A 0.985 0.985 0 0 1 61.573 47.144 A 1.184 1.184 0 0 1 61.606 47.127 A 1.317 1.317 0 0 1 62.075 47.002 A 1.592 1.592 0 0 1 62.207 46.997 A 1.92 1.92 0 0 1 62.533 47.022 Q 62.71 47.053 62.85 47.12 A 0.874 0.874 0 0 1 63.08 47.276 A 0.843 0.843 0 0 1 63.285 47.599 Q 63.334 47.732 63.356 47.896 A 2.122 2.122 0 0 1 63.373 48.171 L 63.373 50.266 Z M 54.03 47.055 L 54.03 47.433 L 53.212 47.433 L 53.212 50.266 L 52.726 50.266 L 52.726 47.433 L 52.152 47.433 L 52.152 47.213 L 52.726 47.038 L 52.726 46.859 Q 52.726 45.837 53.497 45.697 A 1.478 1.478 0 0 1 53.76 45.675 A 1.566 1.566 0 0 1 53.982 45.692 Q 54.09 45.708 54.21 45.737 A 3.148 3.148 0 0 1 54.358 45.778 L 54.232 46.167 A 2.362 2.362 0 0 0 54.048 46.116 Q 53.882 46.077 53.751 46.077 A 0.656 0.656 0 0 0 53.593 46.094 A 0.421 0.421 0 0 0 53.344 46.26 Q 53.212 46.443 53.212 46.847 L 53.212 47.055 L 54.03 47.055 Z M 65.848 49.865 L 65.848 50.237 A 0.478 0.478 0 0 1 65.791 50.259 Q 65.731 50.279 65.644 50.295 A 1.819 1.819 0 0 1 65.615 50.3 A 2.108 2.108 0 0 1 65.478 50.318 Q 65.404 50.325 65.338 50.325 A 1.27 1.27 0 0 1 64.964 50.274 Q 64.553 50.147 64.445 49.7 A 1.529 1.529 0 0 1 64.407 49.343 L 64.407 47.433 L 63.947 47.433 L 63.947 47.199 L 64.407 46.997 L 64.612 46.311 L 64.893 46.311 L 64.893 47.055 L 65.825 47.055 L 65.825 47.433 L 64.893 47.433 L 64.893 49.323 A 0.979 0.979 0 0 0 64.907 49.495 Q 64.924 49.589 64.961 49.664 A 0.472 0.472 0 0 0 65.031 49.768 A 0.452 0.452 0 0 0 65.308 49.916 A 0.65 0.65 0 0 0 65.409 49.923 Q 65.538 49.923 65.658 49.904 A 2.631 2.631 0 0 0 65.728 49.892 Q 65.795 49.88 65.842 49.867 A 0.726 0.726 0 0 0 65.848 49.865 Z M 56.464 47.032 L 56.397 47.483 Q 56.231 47.446 56.098 47.44 A 1.141 1.141 0 0 0 56.045 47.439 A 0.843 0.843 0 0 0 55.423 47.708 A 1.153 1.153 0 0 0 55.379 47.755 A 1.111 1.111 0 0 0 55.111 48.379 A 1.476 1.476 0 0 0 55.102 48.543 L 55.102 50.266 L 54.616 50.266 L 54.616 47.055 L 55.017 47.055 L 55.073 47.65 L 55.096 47.65 A 1.642 1.642 0 0 1 55.28 47.387 A 1.255 1.255 0 0 1 55.527 47.166 A 0.969 0.969 0 0 1 56.081 46.997 A 2.233 2.233 0 0 1 56.28 47.005 A 1.63 1.63 0 0 1 56.464 47.032 Z M 59.792 49.146 A 2.512 2.512 0 0 0 59.836 48.658 A 2.854 2.854 0 0 0 59.835 48.58 Q 59.816 47.87 59.439 47.445 Q 59.042 46.997 58.369 46.997 A 1.889 1.889 0 0 0 58.029 47.026 A 1.286 1.286 0 0 0 57.279 47.435 A 1.344 1.344 0 0 0 57.114 47.663 Q 56.987 47.885 56.931 48.169 A 2.525 2.525 0 0 0 56.886 48.658 A 2.433 2.433 0 0 0 56.917 49.052 A 1.799 1.799 0 0 0 57.068 49.542 Q 57.25 49.92 57.583 50.122 A 1.354 1.354 0 0 0 57.894 50.261 A 1.562 1.562 0 0 0 58.348 50.325 Q 59.045 50.325 59.441 49.884 Q 59.704 49.591 59.792 49.146 Z M 57.39 48.658 A 2.463 2.463 0 0 0 57.414 49.009 Q 57.466 49.372 57.636 49.595 A 0.797 0.797 0 0 0 58.155 49.901 A 1.208 1.208 0 0 0 58.36 49.917 A 1.13 1.13 0 0 0 58.658 49.88 A 0.786 0.786 0 0 0 59.085 49.597 A 1.044 1.044 0 0 0 59.248 49.28 Q 59.295 49.134 59.316 48.955 A 2.562 2.562 0 0 0 59.333 48.658 A 2.427 2.427 0 0 0 59.31 48.312 Q 59.257 47.948 59.085 47.727 A 0.8 0.8 0 0 0 58.588 47.431 A 1.227 1.227 0 0 0 58.354 47.41 A 1.157 1.157 0 0 0 58.066 47.443 A 0.775 0.775 0 0 0 57.633 47.723 A 1.006 1.006 0 0 0 57.477 48.025 Q 57.431 48.164 57.409 48.334 A 2.57 2.57 0 0 0 57.39 48.658 Z"
       id="front_labelLayer"
       stroke="#777777"
       fill="#777777"
       style="stroke:#777777;fill:#777777"
       vector-effect="non-scaling-stroke" />
    <path
       d="M 124 33 L 124 37.875 L 121 37.875 L 121 44.625 L 124 44.625 L 124 51.375 L 121 51.375 L 121 58.125 L 124 58.125 L 124 63 L 129.125 63 L 129.125 60 L 135.875 60 L 135.875 63 L 141 63 L 141 58.125 L 144 58.125 L 144 51.375 L 141 51.375 L 141 44.625 L 144 44.625 L 144 37.875 L 141 37.875 L 141 33 L 135.875 33 L 135.875 36 L 129.125 36 L 129.125 33 L 124 33 Z"
       id="left_outsideCutPath"
       stroke="#FF0000"
       stroke-width="0.1"
       style="stroke:#FF0000;stroke-width:0.1"
       vector-effect="non-scaling-stroke" />
    <path
       d="M 134.136 47.276 L 134.136 47.565 L 133.51 47.565 L 133.51 49.737 L 133.137 49.737 L 133.137 47.565 L 132.697 47.565 L 132.697 47.397 L 133.137 47.262 L 133.137 47.125 A 1.511 1.511 0 0 1 133.172 46.783 Q 133.304 46.218 133.93 46.218 Q 134.125 46.218 134.388 46.296 L 134.291 46.595 Q 134.138 46.546 134.017 46.531 A 0.802 0.802 0 0 0 133.923 46.525 A 0.503 0.503 0 0 0 133.802 46.539 A 0.323 0.323 0 0 0 133.611 46.666 A 0.431 0.431 0 0 0 133.554 46.781 Q 133.516 46.893 133.51 47.06 A 1.76 1.76 0 0 0 133.51 47.116 L 133.51 47.276 L 134.136 47.276 Z M 132.391 48.338 L 132.391 48.574 L 130.695 48.574 A 1.496 1.496 0 0 0 130.721 48.824 Q 130.748 48.961 130.802 49.069 A 0.7 0.7 0 0 0 130.914 49.232 A 0.678 0.678 0 0 0 131.27 49.432 A 1.027 1.027 0 0 0 131.499 49.457 A 1.969 1.969 0 0 0 132.237 49.31 A 2.257 2.257 0 0 0 132.285 49.29 L 132.285 49.623 A 2.238 2.238 0 0 1 132.082 49.7 A 1.712 1.712 0 0 1 131.912 49.745 A 1.565 1.565 0 0 1 131.756 49.769 Q 131.68 49.777 131.593 49.78 A 3.038 3.038 0 0 1 131.486 49.782 A 1.449 1.449 0 0 1 131.123 49.739 A 1.026 1.026 0 0 1 130.625 49.45 Q 130.327 49.137 130.31 48.594 A 2.129 2.129 0 0 1 130.309 48.527 A 1.958 1.958 0 0 1 130.345 48.138 Q 130.393 47.902 130.504 47.719 A 1.104 1.104 0 0 1 130.602 47.581 A 0.955 0.955 0 0 1 131.298 47.234 A 1.318 1.318 0 0 1 131.389 47.231 A 1.136 1.136 0 0 1 131.709 47.273 A 0.864 0.864 0 0 1 132.122 47.535 A 1.043 1.043 0 0 1 132.358 48.011 A 1.518 1.518 0 0 1 132.391 48.338 Z M 135.718 49.43 L 135.718 49.715 A 0.367 0.367 0 0 1 135.674 49.732 Q 135.62 49.75 135.539 49.763 Q 135.421 49.782 135.327 49.782 Q 134.757 49.782 134.642 49.304 A 1.172 1.172 0 0 1 134.612 49.03 L 134.612 47.565 L 134.26 47.565 L 134.26 47.386 L 134.612 47.231 L 134.77 46.705 L 134.985 46.705 L 134.985 47.276 L 135.7 47.276 L 135.7 47.565 L 134.985 47.565 L 134.985 49.014 A 0.751 0.751 0 0 0 134.996 49.146 Q 135.019 49.275 135.091 49.355 A 0.346 0.346 0 0 0 135.304 49.469 A 0.498 0.498 0 0 0 135.381 49.475 A 1.225 1.225 0 0 0 135.56 49.462 A 1.133 1.133 0 0 0 135.572 49.46 Q 135.659 49.446 135.713 49.431 A 0.559 0.559 0 0 0 135.718 49.43 Z M 129.655 46.242 L 129.655 49.737 L 129.282 49.737 L 129.282 46.242 L 129.655 46.242 Z M 130.704 48.271 L 131.991 48.271 Q 131.991 48.032 131.919 47.869 A 0.577 0.577 0 0 0 131.834 47.73 A 0.511 0.511 0 0 0 131.526 47.555 A 0.766 0.766 0 0 0 131.385 47.543 A 0.735 0.735 0 0 0 131.172 47.572 A 0.568 0.568 0 0 0 130.912 47.736 Q 130.752 47.911 130.712 48.207 A 1.408 1.408 0 0 0 130.704 48.271 Z"
       id="left_labelLayer"
       stroke="#777777"
       fill="#777777"
       style="stroke:#777777;fill:#777777"
       vector-effect="non-scaling-stroke" />
    <path
       d="M 150 43 L 150 48.125 L 147 48.125 L 147 54.875 L 150 54.875 L 150 60 L 155.375 60 L 155.375 63 L 162.125 63 L 162.125 60 L 168.875 60 L 168.875 63 L 175.625 63 L 175.625 60 L 182.375 60 L 182.375 63 L 189.125 63 L 189.125 60 L 195.875 60 L 195.875 63 L 202.625 63 L 202.625 60 L 209.375 60 L 209.375 63 L 216.125 63 L 216.125 60 L 222.875 60 L 222.875 63 L 229.625 63 L 229.625 60 L 236.375 60 L 236.375 63 L 243.125 63 L 243.125 60 L 249.875 60 L 249.875 63 L 256.625 63 L 256.625 60 L 262 60 L 262 54.875 L 265 54.875 L 265 48.125 L 262 48.125 L 262 43 L 256.625 43 L 256.625 40 L 249.875 40 L 249.875 43 L 243.125 43 L 243.125 40 L 236.375 40 L 236.375 43 L 229.625 43 L 229.625 40 L 222.875 40 L 222.875 43 L 216.125 43 L 216.125 40 L 209.375 40 L 209.375 43 L 202.625 43 L 202.625 40 L 195.875 40 L 195.875 43 L 189.125 43 L 189.125 40 L 182.375 40 L 182.375 43 L 175.625 43 L 175.625 40 L 168.875 40 L 168.875 43 L 162.125 43 L 162.125 40 L 155.375 40 L 155.375 43 L 150 43 Z"
       id="top_outsideCutPath"
       stroke="#FF0000"
       stroke-width="0.1"
       style="stroke:#FF0000;stroke-width:0.1"
       vector-effect="non-scaling-stroke" />
    <path
       d="M 207.653 52.147 L 207.626 52.147 A 3.528 3.528 0 0 1 207.649 52.408 A 2.957 2.957 0 0 1 207.653 52.556 L 207.653 53.569 L 207.28 53.569 L 207.28 50.002 L 207.583 50.002 L 207.635 50.339 L 207.653 50.339 Q 207.797 50.137 207.988 50.047 Q 208.179 49.957 208.426 49.957 A 1.143 1.143 0 0 1 208.749 50 A 0.845 0.845 0 0 1 209.182 50.292 A 1.12 1.12 0 0 1 209.373 50.665 Q 209.422 50.825 209.439 51.019 A 2.428 2.428 0 0 1 209.448 51.23 A 2.186 2.186 0 0 1 209.419 51.598 Q 209.385 51.794 209.313 51.952 A 1.048 1.048 0 0 1 209.177 52.173 A 0.883 0.883 0 0 1 208.55 52.503 A 1.265 1.265 0 0 1 208.426 52.508 A 1.131 1.131 0 0 1 208.142 52.474 A 0.984 0.984 0 0 1 207.987 52.42 A 0.826 0.826 0 0 1 207.653 52.147 Z M 204.01 52.156 L 204.01 52.441 A 0.367 0.367 0 0 1 203.966 52.458 Q 203.912 52.476 203.831 52.489 Q 203.713 52.508 203.619 52.508 Q 203.049 52.508 202.934 52.03 A 1.172 1.172 0 0 1 202.905 51.756 L 202.905 50.292 L 202.552 50.292 L 202.552 50.112 L 202.905 49.957 L 203.062 49.431 L 203.278 49.431 L 203.278 50.002 L 203.992 50.002 L 203.992 50.292 L 203.278 50.292 L 203.278 51.74 A 0.751 0.751 0 0 0 203.289 51.872 Q 203.312 52.001 203.383 52.082 A 0.346 0.346 0 0 0 203.596 52.195 A 0.498 0.498 0 0 0 203.673 52.201 A 1.225 1.225 0 0 0 203.852 52.188 A 1.133 1.133 0 0 0 203.864 52.186 Q 203.952 52.172 204.005 52.157 A 0.559 0.559 0 0 0 204.01 52.156 Z M 206.592 51.605 A 1.926 1.926 0 0 0 206.627 51.23 A 2.188 2.188 0 0 0 206.626 51.171 Q 206.62 50.966 206.576 50.792 A 1.161 1.161 0 0 0 206.322 50.301 A 0.976 0.976 0 0 0 205.869 50.008 A 1.253 1.253 0 0 0 205.501 49.957 A 1.448 1.448 0 0 0 205.241 49.979 A 0.986 0.986 0 0 0 204.666 50.293 Q 204.365 50.629 204.365 51.23 A 1.865 1.865 0 0 0 204.388 51.533 A 1.379 1.379 0 0 0 204.504 51.909 A 1.225 1.225 0 0 0 204.531 51.962 A 1.009 1.009 0 0 0 204.899 52.354 A 1.038 1.038 0 0 0 205.138 52.459 A 1.197 1.197 0 0 0 205.486 52.508 A 1.448 1.448 0 0 0 205.738 52.487 A 0.994 0.994 0 0 0 206.323 52.17 A 1.04 1.04 0 0 0 206.447 52 Q 206.548 51.827 206.592 51.605 Z M 204.751 51.23 Q 204.751 51.702 204.94 51.949 A 0.611 0.611 0 0 0 205.338 52.184 A 0.926 0.926 0 0 0 205.495 52.196 Q 205.861 52.196 206.051 51.95 A 0.8 0.8 0 0 0 206.175 51.708 Q 206.24 51.508 206.24 51.23 A 1.86 1.86 0 0 0 206.223 50.965 Q 206.182 50.687 206.051 50.517 A 0.613 0.613 0 0 0 205.669 50.29 A 0.94 0.94 0 0 0 205.49 50.274 A 0.887 0.887 0 0 0 205.269 50.3 A 0.594 0.594 0 0 0 204.938 50.514 A 0.771 0.771 0 0 0 204.818 50.746 Q 204.782 50.852 204.766 50.982 A 1.97 1.97 0 0 0 204.751 51.23 Z M 207.653 51.147 L 207.653 51.23 A 2.465 2.465 0 0 0 207.665 51.485 Q 207.692 51.742 207.778 51.899 A 0.562 0.562 0 0 0 207.826 51.973 A 0.541 0.541 0 0 0 208.1 52.158 Q 208.192 52.187 208.304 52.194 A 1.199 1.199 0 0 0 208.381 52.196 Q 208.688 52.196 208.866 51.957 A 0.743 0.743 0 0 0 208.881 51.938 A 0.901 0.901 0 0 0 209.004 51.675 Q 209.04 51.554 209.053 51.409 A 1.986 1.986 0 0 0 209.061 51.226 A 1.882 1.882 0 0 0 209.044 50.959 Q 209.024 50.824 208.984 50.714 A 0.79 0.79 0 0 0 208.881 50.52 A 0.58 0.58 0 0 0 208.456 50.278 A 0.802 0.802 0 0 0 208.372 50.274 A 1.074 1.074 0 0 0 208.171 50.291 Q 208.059 50.312 207.974 50.36 A 0.493 0.493 0 0 0 207.826 50.483 Q 207.658 50.691 207.653 51.147 Z"
       id="top_labelLayer"
       stroke="#777777"
       fill="#777777"
       style="stroke:#777777;fill:#777777"
       vector-effect="non-scaling-stroke" />
    <path
       d="M 0 0 L 0 4.875 L 3 4.875 L 3 11.625 L 0 11.625 L 0 18.375 L 3 18.375 L 3 25.125 L 0 25.125 L 0 30 L 8.375 30 L 8.375 27 L 15.125 27 L 15.125 30 L 21.875 30 L 21.875 27 L 28.625 27 L 28.625 30 L 35.375 30 L 35.375 27 L 42.125 27 L 42.125 30 L 48.875 30 L 48.875 27 L 55.625 27 L 55.625 30 L 62.375 30 L 62.375 27 L 69.125 27 L 69.125 30 L 75.875 30 L 75.875 27 L 82.625 27 L 82.625 30 L 89.375 30 L 89.375 27 L 96.125 27 L 96.125 30 L 102.875 30 L 102.875 27 L 109.625 27 L 109.625 30 L 118 30 L 118 25.125 L 115 25.125 L 115 18.375 L 118 18.375 L 118 11.625 L 115 11.625 L 115 4.875 L 118 4.875 L 118 0 L 109.625 0 L 109.625 3 L 102.875 3 L 102.875 0 L 96.125 0 L 96.125 3 L 89.375 3 L 89.375 0 L 82.625 0 L 82.625 3 L 75.875 3 L 75.875 0 L 69.125 0 L 69.125 3 L 62.375 3 L 62.375 0 L 55.625 0 L 55.625 3 L 48.875 3 L 48.875 0 L 42.125 0 L 42.125 3 L 35.375 3 L 35.375 0 L 28.625 0 L 28.625 3 L 21.875 3 L 21.875 0 L 15.125 0 L 15.125 3 L 8.375 3 L 8.375 0 L 0 0 Z"
       id="back_outsideCutPath"
       stroke="#FF0000"
       stroke-width="0.1"
       style="stroke:#FF0000;stroke-width:0.1"
       vector-effect="non-scaling-stroke" />
    <path
       d="M 63.107 15.606 L 63.131 15.606 Q 63.227 15.47 63.401 15.268 A 10.448 10.448 0 0 1 63.515 15.138 L 64.552 14.039 L 65.129 14.039 L 63.828 15.407 L 65.22 17.25 L 64.631 17.25 L 63.497 15.732 L 63.131 16.049 L 63.131 17.25 L 62.65 17.25 L 62.65 12.691 L 63.131 12.691 L 63.131 15.108 Q 63.131 15.269 63.107 15.606 Z M 53.267 16.837 L 53.231 16.837 L 53.129 17.25 L 52.78 17.25 L 52.78 12.691 L 53.267 12.691 L 53.267 13.799 A 10.14 10.14 0 0 1 53.261 14.141 Q 53.256 14.303 53.245 14.448 A 6.057 6.057 0 0 1 53.243 14.467 L 53.267 14.467 Q 53.606 13.986 54.274 13.986 A 1.486 1.486 0 0 1 54.693 14.042 A 1.113 1.113 0 0 1 55.257 14.418 Q 55.538 14.764 55.594 15.341 A 3.122 3.122 0 0 1 55.607 15.642 A 2.851 2.851 0 0 1 55.57 16.121 Q 55.492 16.576 55.254 16.871 Q 54.901 17.309 54.274 17.309 A 1.475 1.475 0 0 1 53.904 17.263 A 1.283 1.283 0 0 1 53.702 17.193 A 1.077 1.077 0 0 1 53.267 16.837 Z M 58.792 17.25 L 58.432 17.25 L 58.335 16.793 L 58.312 16.793 A 2.016 2.016 0 0 1 58.148 16.976 Q 58.061 17.062 57.973 17.122 A 0.896 0.896 0 0 1 57.833 17.202 A 1.121 1.121 0 0 1 57.601 17.275 Q 57.437 17.309 57.236 17.309 A 1.492 1.492 0 0 1 56.933 17.28 Q 56.747 17.241 56.604 17.151 A 0.837 0.837 0 0 1 56.488 17.062 A 0.799 0.799 0 0 1 56.247 16.641 A 1.224 1.224 0 0 1 56.217 16.362 Q 56.217 15.421 57.674 15.347 A 4.751 4.751 0 0 1 57.772 15.343 L 58.317 15.325 L 58.317 15.126 Q 58.317 14.748 58.155 14.568 Q 58.025 14.424 57.771 14.395 A 1.202 1.202 0 0 0 57.635 14.388 Q 57.312 14.388 56.921 14.547 A 3.257 3.257 0 0 0 56.727 14.634 L 56.577 14.262 A 2.242 2.242 0 0 1 57.01 14.084 A 2.552 2.552 0 0 1 57.097 14.06 A 2.252 2.252 0 0 1 57.664 13.986 A 2.054 2.054 0 0 1 57.977 14.008 Q 58.32 14.061 58.515 14.241 A 0.77 0.77 0 0 1 58.714 14.548 Q 58.76 14.674 58.779 14.83 A 1.914 1.914 0 0 1 58.792 15.059 L 58.792 17.25 Z M 61.936 14.147 L 61.786 14.561 A 2.163 2.163 0 0 0 61.551 14.482 A 2.584 2.584 0 0 0 61.435 14.454 A 2.009 2.009 0 0 0 61.282 14.425 Q 61.182 14.411 61.098 14.411 A 1.079 1.079 0 0 0 60.66 14.493 Q 60.119 14.732 60.119 15.659 Q 60.119 16.048 60.222 16.317 A 1.009 1.009 0 0 0 60.358 16.567 A 0.772 0.772 0 0 0 60.858 16.866 A 1.177 1.177 0 0 0 61.065 16.884 Q 61.467 16.884 61.889 16.711 L 61.889 17.142 A 1.383 1.383 0 0 1 61.55 17.261 Q 61.337 17.309 61.077 17.309 A 1.818 1.818 0 0 1 60.635 17.258 A 1.233 1.233 0 0 1 59.998 16.879 A 1.407 1.407 0 0 1 59.705 16.342 Q 59.64 16.129 59.622 15.872 A 2.941 2.941 0 0 1 59.615 15.665 Q 59.615 14.859 60.003 14.42 A 1.259 1.259 0 0 1 60.693 14.023 A 1.909 1.909 0 0 1 61.109 13.98 A 2.195 2.195 0 0 1 61.572 14.03 A 2.428 2.428 0 0 1 61.707 14.063 Q 61.845 14.101 61.936 14.147 Z M 54.204 14.394 A 1.367 1.367 0 0 0 53.939 14.417 Q 53.789 14.447 53.674 14.514 A 0.647 0.647 0 0 0 53.486 14.679 Q 53.293 14.93 53.27 15.483 A 3.747 3.747 0 0 0 53.267 15.642 Q 53.267 16.216 53.429 16.513 A 0.734 0.734 0 0 0 53.492 16.61 A 0.706 0.706 0 0 0 53.85 16.851 Q 53.97 16.889 54.116 16.898 A 1.564 1.564 0 0 0 54.216 16.901 A 0.969 0.969 0 0 0 54.491 16.864 A 0.699 0.699 0 0 0 54.884 16.575 A 1.116 1.116 0 0 0 55.022 16.276 Q 55.065 16.134 55.086 15.962 A 2.787 2.787 0 0 0 55.104 15.636 A 2.873 2.873 0 0 0 55.086 15.308 Q 55.045 14.95 54.906 14.734 A 0.807 0.807 0 0 0 54.884 14.701 A 0.709 0.709 0 0 0 54.432 14.415 A 1.125 1.125 0 0 0 54.204 14.394 Z M 58.306 15.961 L 58.306 15.671 L 57.819 15.691 Q 57.335 15.708 57.076 15.823 A 0.747 0.747 0 0 0 56.983 15.872 Q 56.727 16.031 56.727 16.368 A 0.695 0.695 0 0 0 56.744 16.528 Q 56.773 16.65 56.85 16.734 A 0.433 0.433 0 0 0 56.886 16.769 Q 57.046 16.907 57.333 16.907 Q 57.725 16.907 57.972 16.721 A 0.812 0.812 0 0 0 58.046 16.658 Q 58.306 16.409 58.306 15.961 Z"
       id="back_labelLayer"
       stroke="#777777"
       fill="#777777"
       style="stroke:#777777;fill:#777777"
       vector-effect="non-scaling-stroke" />
    <path
       d="M 124 0 L 124 4.875 L 121 4.875 L 121 11.625 L 124 11.625 L 124 18.375 L 121 18.375 L 121 25.125 L 124 25.125 L 124 30 L 129.125 30 L 129.125 27 L 135.875 27 L 135.875 30 L 141 30 L 141 25.125 L 144 25.125 L 144 18.375 L 141 18.375 L 141 11.625 L 144 11.625 L 144 4.875 L 141 4.875 L 141 0 L 135.875 0 L 135.875 3 L 129.125 3 L 129.125 0 L 124 0 Z"
       id="right_outsideCutPath"
       stroke="#FF0000"
       stroke-width="0.1"
       style="stroke:#FF0000;stroke-width:0.1"
       vector-effect="non-scaling-stroke" />
    <path
       d="M 135.36 16.195 L 134.988 16.195 L 134.988 14.602 A 1.054 1.054 0 0 0 134.975 14.437 Q 134.962 14.35 134.932 14.281 A 0.444 0.444 0 0 0 134.851 14.153 Q 134.74 14.033 134.527 14.01 A 0.988 0.988 0 0 0 134.422 14.005 A 1.128 1.128 0 0 0 134.211 14.023 Q 134.094 14.046 134.004 14.095 A 0.522 0.522 0 0 0 133.854 14.216 A 0.62 0.62 0 0 0 133.749 14.403 Q 133.686 14.574 133.677 14.827 A 2.407 2.407 0 0 0 133.676 14.908 L 133.676 16.195 L 133.303 16.195 L 133.303 12.7 L 133.676 12.7 L 133.676 13.758 A 3.354 3.354 0 0 1 133.674 13.887 Q 133.669 13.994 133.658 14.075 L 133.68 14.075 Q 133.79 13.897 133.994 13.795 A 0.957 0.957 0 0 1 134.308 13.702 A 1.21 1.21 0 0 1 134.457 13.693 A 1.513 1.513 0 0 1 134.712 13.713 Q 134.978 13.758 135.135 13.907 Q 135.31 14.074 135.349 14.393 A 1.612 1.612 0 0 1 135.36 14.589 L 135.36 16.195 Z M 131.946 13.733 L 132.798 13.733 L 132.798 13.969 L 132.342 14.023 A 0.606 0.606 0 0 1 132.394 14.101 Q 132.417 14.141 132.438 14.19 A 1.15 1.15 0 0 1 132.454 14.228 A 0.717 0.717 0 0 1 132.496 14.4 A 0.921 0.921 0 0 1 132.503 14.515 A 0.855 0.855 0 0 1 132.464 14.78 A 0.691 0.691 0 0 1 132.256 15.092 Q 132.034 15.286 131.662 15.306 A 1.62 1.62 0 0 1 131.578 15.308 A 1.198 1.198 0 0 1 131.439 15.3 A 1.012 1.012 0 0 1 131.371 15.29 Q 131.133 15.416 131.133 15.606 A 0.193 0.193 0 0 0 131.143 15.67 Q 131.162 15.724 131.216 15.756 A 0.262 0.262 0 0 0 131.274 15.78 Q 131.335 15.797 131.428 15.802 A 1.418 1.418 0 0 0 131.502 15.804 L 131.937 15.804 A 1.526 1.526 0 0 1 132.169 15.821 Q 132.29 15.839 132.388 15.879 A 0.674 0.674 0 0 1 132.552 15.973 Q 132.766 16.141 132.766 16.462 A 0.807 0.807 0 0 1 132.72 16.741 Q 132.643 16.951 132.438 17.085 A 1.118 1.118 0 0 1 132.15 17.216 Q 132.008 17.259 131.835 17.28 A 2.955 2.955 0 0 1 131.481 17.3 A 2.089 2.089 0 0 1 131.201 17.282 Q 131.059 17.263 130.943 17.223 A 0.866 0.866 0 0 1 130.737 17.12 A 0.594 0.594 0 0 1 130.545 16.912 Q 130.475 16.782 130.475 16.613 A 0.57 0.57 0 0 1 130.619 16.224 Q 130.763 16.06 131.023 16.002 A 0.387 0.387 0 0 1 130.873 15.88 A 0.459 0.459 0 0 1 130.865 15.869 Q 130.801 15.779 130.801 15.66 A 0.426 0.426 0 0 1 130.822 15.523 A 0.378 0.378 0 0 1 130.873 15.424 A 0.534 0.534 0 0 1 130.943 15.345 Q 130.981 15.31 131.029 15.276 A 1.171 1.171 0 0 1 131.1 15.229 A 0.654 0.654 0 0 1 130.816 15.002 A 0.81 0.81 0 0 1 130.788 14.962 Q 130.668 14.773 130.668 14.531 A 1.077 1.077 0 0 1 130.697 14.276 A 0.709 0.709 0 0 1 130.911 13.907 A 0.792 0.792 0 0 1 131.215 13.74 Q 131.336 13.703 131.481 13.692 A 1.647 1.647 0 0 1 131.598 13.688 A 1.429 1.429 0 0 1 131.787 13.7 A 1.088 1.088 0 0 1 131.946 13.733 Z M 137.258 15.887 L 137.258 16.172 A 0.367 0.367 0 0 1 137.215 16.19 Q 137.161 16.208 137.08 16.221 Q 136.962 16.24 136.868 16.24 Q 136.298 16.24 136.183 15.761 A 1.172 1.172 0 0 1 136.153 15.487 L 136.153 14.023 L 135.801 14.023 L 135.801 13.843 L 136.153 13.688 L 136.31 13.163 L 136.526 13.163 L 136.526 13.733 L 137.24 13.733 L 137.24 14.023 L 136.526 14.023 L 136.526 15.472 A 0.751 0.751 0 0 0 136.537 15.604 Q 136.56 15.732 136.632 15.813 A 0.346 0.346 0 0 0 136.845 15.926 A 0.498 0.498 0 0 0 136.921 15.932 A 1.225 1.225 0 0 0 137.101 15.919 A 1.133 1.133 0 0 0 137.112 15.918 Q 137.2 15.904 137.253 15.889 A 0.559 0.559 0 0 0 137.258 15.887 Z M 129.159 13.715 L 129.107 14.061 A 1.643 1.643 0 0 0 128.989 14.039 Q 128.93 14.031 128.878 14.028 A 0.874 0.874 0 0 0 128.838 14.027 A 0.646 0.646 0 0 0 128.36 14.234 A 0.884 0.884 0 0 0 128.327 14.27 A 0.851 0.851 0 0 0 128.121 14.748 A 1.132 1.132 0 0 0 128.115 14.874 L 128.115 16.195 L 127.742 16.195 L 127.742 13.733 L 128.049 13.733 L 128.092 14.189 L 128.11 14.189 A 1.259 1.259 0 0 1 128.251 13.988 A 0.962 0.962 0 0 1 128.44 13.819 A 0.743 0.743 0 0 1 128.865 13.688 A 1.712 1.712 0 0 1 129.018 13.695 A 1.249 1.249 0 0 1 129.159 13.715 Z M 129.992 13.733 L 129.992 16.195 L 129.619 16.195 L 129.619 13.733 L 129.992 13.733 Z M 131.818 16.139 L 131.371 16.139 A 0.857 0.857 0 0 0 131.217 16.152 Q 131.129 16.168 131.06 16.204 A 0.437 0.437 0 0 0 130.976 16.26 A 0.393 0.393 0 0 0 130.847 16.483 A 0.597 0.597 0 0 0 130.835 16.608 Q 130.835 16.808 131.003 16.911 Q 131.171 17.015 131.486 17.015 A 2.506 2.506 0 0 0 131.731 17.004 Q 132.019 16.975 132.181 16.874 A 0.544 0.544 0 0 0 132.307 16.769 A 0.408 0.408 0 0 0 132.407 16.494 A 0.504 0.504 0 0 0 132.398 16.393 Q 132.386 16.336 132.359 16.293 A 0.235 0.235 0 0 0 132.283 16.216 Q 132.16 16.139 131.818 16.139 Z M 131.12 14.84 A 0.399 0.399 0 0 0 131.183 14.912 A 0.482 0.482 0 0 0 131.377 15.018 Q 131.45 15.039 131.539 15.044 A 0.96 0.96 0 0 0 131.589 15.045 A 0.812 0.812 0 0 0 131.802 15.02 Q 132.135 14.929 132.135 14.515 A 0.802 0.802 0 0 0 132.108 14.295 Q 132.037 14.049 131.787 13.984 A 0.811 0.811 0 0 0 131.582 13.96 Q 131.381 13.96 131.251 14.043 A 0.429 0.429 0 0 0 131.178 14.102 Q 131.058 14.222 131.04 14.44 A 0.981 0.981 0 0 0 131.037 14.522 Q 131.037 14.716 131.12 14.84 Z M 129.593 12.998 A 0.413 0.413 0 0 0 129.588 13.066 A 0.44 0.44 0 0 0 129.59 13.108 Q 129.593 13.146 129.604 13.177 A 0.192 0.192 0 0 0 129.651 13.254 Q 129.714 13.315 129.808 13.315 A 0.218 0.218 0 0 0 129.963 13.254 Q 130.008 13.211 130.022 13.137 A 0.386 0.386 0 0 0 130.028 13.066 Q 130.028 13.005 130.013 12.959 A 0.188 0.188 0 0 0 129.963 12.88 A 0.22 0.22 0 0 0 129.808 12.819 A 0.285 0.285 0 0 0 129.789 12.82 A 0.216 0.216 0 0 0 129.651 12.879 A 0.174 0.174 0 0 0 129.612 12.933 Q 129.599 12.962 129.593 12.998 Z"
       id="right_labelLayer"
       stroke="#777777"
       fill="#777777"
       style="stroke:#777777;fill:#777777"
       vector-effect="non-scaling-stroke" />
    <path
       d="M 150 17 L 150 22.125 L 147 22.125 L 147 28.875 L 150 28.875 L 150 34 L 155.375 34 L 155.375 37 L 162.125 37 L 162.125 34 L 168.875 34 L 168.875 37 L 175.625 37 L 175.625 34 L 182.375 34 L 182.375 37 L 189.125 37 L 189.125 34 L 195.875 34 L 195.875 37 L 202.625 37 L 202.625 34 L 209.375 34 L 209.375 37 L 216.125 37 L 216.125 34 L 222.875 34 L 222.875 37 L 229.625 37 L 229.625 34 L 236.375 34 L 236.375 37 L 243.125 37 L 243.125 34 L 249.875 34 L 249.875 37 L 256.625 37 L 256.625 34 L 262 34 L 262 28.875 L 265 28.875 L 265 22.125 L 262 22.125 L 262 17 L 256.625 17 L 256.625 14 L 249.875 14 L 249.875 17 L 243.125 17 L 243.125 14 L 236.375 14 L 236.375 17 L 229.625 17 L 229.625 14 L 222.875 14 L 222.875 17 L 216.125 17 L 216.125 14 L 209.375 14 L 209.375 17 L 202.625 17 L 202.625 14 L 195.875 14 L 195.875 17 L 189.125 17 L 189.125 14 L 182.375 14 L 182.375 17 L 175.625 17 L 175.625 14 L 168.875 14 L 168.875 17 L 162.125 17 L 162.125 14 L 155.375 14 L 155.375 17 L 150 17 Z"
       id="bottom_outsideCutPath"
       stroke="#FF0000"
       stroke-width="0.1"
       style="stroke:#FF0000;stroke-width:0.1"
       vector-effect="non-scaling-stroke" />
    <path
       d="M 213.567 27.225 L 213.194 27.225 L 213.194 25.623 A 1.1 1.1 0 0 0 213.183 25.462 Q 213.171 25.379 213.145 25.313 A 0.451 0.451 0 0 0 213.068 25.182 A 0.392 0.392 0 0 0 212.886 25.064 Q 212.821 25.043 212.742 25.037 A 0.866 0.866 0 0 0 212.678 25.035 A 0.959 0.959 0 0 0 212.482 25.054 Q 212.366 25.078 212.279 25.133 A 0.494 0.494 0 0 0 212.163 25.235 A 0.616 0.616 0 0 0 212.059 25.424 Q 211.998 25.596 211.997 25.847 A 2.033 2.033 0 0 0 211.997 25.85 L 211.997 27.225 L 211.624 27.225 L 211.624 25.623 A 1.1 1.1 0 0 0 211.613 25.462 Q 211.601 25.379 211.575 25.313 A 0.451 0.451 0 0 0 211.498 25.182 A 0.391 0.391 0 0 0 211.319 25.065 Q 211.254 25.044 211.175 25.038 A 0.873 0.873 0 0 0 211.105 25.035 A 0.926 0.926 0 0 0 210.914 25.054 Q 210.796 25.079 210.708 25.137 A 0.489 0.489 0 0 0 210.592 25.245 A 0.625 0.625 0 0 0 210.499 25.421 Q 210.439 25.591 210.431 25.846 A 2.596 2.596 0 0 0 210.429 25.933 L 210.429 27.225 L 210.056 27.225 L 210.056 24.763 L 210.36 24.763 L 210.42 25.1 L 210.438 25.1 A 0.733 0.733 0 0 1 210.736 24.819 Q 210.928 24.718 211.166 24.718 A 1.221 1.221 0 0 1 211.441 24.747 Q 211.79 24.828 211.921 25.136 L 211.939 25.136 A 0.778 0.778 0 0 1 212.232 24.845 A 0.935 0.935 0 0 1 212.258 24.831 A 0.944 0.944 0 0 1 212.604 24.725 A 1.177 1.177 0 0 1 212.734 24.718 A 1.296 1.296 0 0 1 212.969 24.738 Q 213.215 24.784 213.359 24.933 Q 213.511 25.089 213.552 25.381 A 1.71 1.71 0 0 1 213.567 25.619 L 213.567 27.225 Z M 198.806 26.908 L 198.779 26.908 L 198.7 27.225 L 198.433 27.225 L 198.433 23.73 L 198.806 23.73 L 198.806 24.579 Q 198.806 24.855 198.789 25.076 A 4.631 4.631 0 0 1 198.788 25.091 L 198.806 25.091 A 0.848 0.848 0 0 1 199.425 24.732 A 1.273 1.273 0 0 1 199.578 24.723 A 1.14 1.14 0 0 1 199.899 24.766 A 0.853 0.853 0 0 1 200.332 25.054 Q 200.6 25.385 200.6 25.992 A 2.186 2.186 0 0 1 200.571 26.36 Q 200.538 26.556 200.466 26.713 A 1.048 1.048 0 0 1 200.33 26.934 A 0.883 0.883 0 0 1 199.702 27.264 A 1.265 1.265 0 0 1 199.578 27.27 A 1.131 1.131 0 0 1 199.294 27.235 A 0.984 0.984 0 0 1 199.139 27.181 A 0.826 0.826 0 0 1 198.806 26.908 Z M 205.162 26.917 L 205.162 27.202 A 0.367 0.367 0 0 1 205.119 27.22 Q 205.065 27.238 204.984 27.251 Q 204.866 27.27 204.771 27.27 Q 204.202 27.27 204.086 26.791 A 1.172 1.172 0 0 1 204.057 26.517 L 204.057 25.053 L 203.704 25.053 L 203.704 24.873 L 204.057 24.718 L 204.214 24.193 L 204.43 24.193 L 204.43 24.763 L 205.144 24.763 L 205.144 25.053 L 204.43 25.053 L 204.43 26.502 A 0.751 0.751 0 0 0 204.441 26.634 Q 204.464 26.762 204.536 26.843 A 0.346 0.346 0 0 0 204.748 26.956 A 0.498 0.498 0 0 0 204.825 26.962 A 1.225 1.225 0 0 0 205.005 26.949 A 1.133 1.133 0 0 0 205.016 26.948 Q 205.104 26.934 205.157 26.919 A 0.559 0.559 0 0 0 205.162 26.917 Z M 206.786 26.917 L 206.786 27.202 A 0.367 0.367 0 0 1 206.743 27.22 Q 206.689 27.238 206.608 27.251 Q 206.49 27.27 206.395 27.27 Q 205.826 27.27 205.71 26.791 A 1.172 1.172 0 0 1 205.681 26.517 L 205.681 25.053 L 205.328 25.053 L 205.328 24.873 L 205.681 24.718 L 205.838 24.193 L 206.054 24.193 L 206.054 24.763 L 206.768 24.763 L 206.768 25.053 L 206.054 25.053 L 206.054 26.502 A 0.751 0.751 0 0 0 206.065 26.634 Q 206.088 26.762 206.159 26.843 A 0.346 0.346 0 0 0 206.372 26.956 A 0.498 0.498 0 0 0 206.449 26.962 A 1.225 1.225 0 0 0 206.629 26.949 A 1.133 1.133 0 0 0 206.64 26.948 Q 206.728 26.934 206.781 26.919 A 0.559 0.559 0 0 0 206.786 26.917 Z M 203.342 26.366 A 1.926 1.926 0 0 0 203.377 25.992 A 2.188 2.188 0 0 0 203.376 25.933 Q 203.37 25.728 203.326 25.554 A 1.161 1.161 0 0 0 203.072 25.062 A 0.976 0.976 0 0 0 202.619 24.77 A 1.253 1.253 0 0 0 202.251 24.718 A 1.448 1.448 0 0 0 201.991 24.741 A 0.986 0.986 0 0 0 201.416 25.054 Q 201.115 25.39 201.115 25.992 A 1.865 1.865 0 0 0 201.138 26.294 A 1.379 1.379 0 0 0 201.254 26.67 A 1.225 1.225 0 0 0 201.281 26.723 A 1.009 1.009 0 0 0 201.649 27.115 A 1.038 1.038 0 0 0 201.888 27.221 A 1.197 1.197 0 0 0 202.236 27.27 A 1.448 1.448 0 0 0 202.488 27.249 A 0.994 0.994 0 0 0 203.073 26.932 A 1.04 1.04 0 0 0 203.197 26.762 Q 203.298 26.589 203.342 26.366 Z M 209.369 26.366 A 1.926 1.926 0 0 0 209.403 25.992 A 2.188 2.188 0 0 0 209.402 25.933 Q 209.396 25.728 209.352 25.554 A 1.161 1.161 0 0 0 209.098 25.062 A 0.976 0.976 0 0 0 208.645 24.77 A 1.253 1.253 0 0 0 208.278 24.718 A 1.448 1.448 0 0 0 208.017 24.741 A 0.986 0.986 0 0 0 207.442 25.054 Q 207.141 25.39 207.141 25.992 A 1.865 1.865 0 0 0 207.164 26.294 A 1.379 1.379 0 0 0 207.28 26.67 A 1.225 1.225 0 0 0 207.307 26.723 A 1.009 1.009 0 0 0 207.676 27.115 A 1.038 1.038 0 0 0 207.914 27.221 A 1.197 1.197 0 0 0 208.262 27.27 A 1.448 1.448 0 0 0 208.515 27.249 A 0.994 0.994 0 0 0 209.1 26.932 A 1.04 1.04 0 0 0 209.223 26.762 Q 209.324 26.589 209.369 26.366 Z M 201.501 25.992 Q 201.501 26.464 201.69 26.711 A 0.611 0.611 0 0 0 202.088 26.945 A 0.926 0.926 0 0 0 202.245 26.958 Q 202.611 26.958 202.8 26.712 A 0.8 0.8 0 0 0 202.925 26.469 Q 202.99 26.27 202.99 25.992 A 1.86 1.86 0 0 0 202.973 25.727 Q 202.932 25.448 202.8 25.279 A 0.613 0.613 0 0 0 202.419 25.051 A 0.94 0.94 0 0 0 202.24 25.035 A 0.887 0.887 0 0 0 202.019 25.061 A 0.594 0.594 0 0 0 201.687 25.275 A 0.771 0.771 0 0 0 201.568 25.507 Q 201.532 25.613 201.516 25.744 A 1.97 1.97 0 0 0 201.501 25.992 Z M 207.527 25.992 Q 207.527 26.464 207.716 26.711 A 0.611 0.611 0 0 0 208.114 26.945 A 0.926 0.926 0 0 0 208.271 26.958 Q 208.637 26.958 208.827 26.712 A 0.8 0.8 0 0 0 208.951 26.469 Q 209.016 26.27 209.016 25.992 A 1.86 1.86 0 0 0 208.999 25.727 Q 208.959 25.448 208.827 25.279 A 0.613 0.613 0 0 0 208.445 25.051 A 0.94 0.94 0 0 0 208.266 25.035 A 0.887 0.887 0 0 0 208.045 25.061 A 0.594 0.594 0 0 0 207.714 25.275 A 0.771 0.771 0 0 0 207.594 25.507 Q 207.559 25.613 207.542 25.744 A 1.97 1.97 0 0 0 207.527 25.992 Z M 199.525 25.035 A 1.048 1.048 0 0 0 199.322 25.053 Q 199.206 25.076 199.118 25.128 A 0.496 0.496 0 0 0 198.974 25.254 Q 198.826 25.446 198.808 25.87 A 2.873 2.873 0 0 0 198.806 25.992 A 2.465 2.465 0 0 0 198.818 26.247 Q 198.845 26.504 198.931 26.66 A 0.562 0.562 0 0 0 198.979 26.734 A 0.541 0.541 0 0 0 199.253 26.919 Q 199.345 26.948 199.457 26.955 A 1.199 1.199 0 0 0 199.533 26.958 A 0.743 0.743 0 0 0 199.745 26.929 A 0.536 0.536 0 0 0 200.046 26.707 A 0.856 0.856 0 0 0 200.151 26.478 Q 200.185 26.369 200.2 26.238 A 2.136 2.136 0 0 0 200.214 25.987 A 2.203 2.203 0 0 0 200.201 25.736 Q 200.167 25.44 200.046 25.271 A 0.544 0.544 0 0 0 199.699 25.052 A 0.862 0.862 0 0 0 199.525 25.035 Z"
       id="bottom_labelLayer"
       stroke="#777777"
       fill="#777777"
       style="stroke:#777777;fill:#777777"
       vector-effect="non-scaling-stroke" />
  </g>
</svg>
